<svg id="svg2" xml:space="preserve" width="821.03998" height="307.29333" viewBox="0 0 821.03998 307.29333" xmlns="http://www.w3.org/2000/svg"><metadata id="metadata8">image/svg+xml</metadata><defs id="defs6"></defs><g id="g10" transform="matrix(1.3333333,0,0,-1.3333333,0,307.29333)"><g id="g12" transform="scale(0.1)"><path d="m 4918.63,2304.72 c 28.61,0 111.27,-7.93 184.4,-7.93 66.76,0 114.44,7.93 152.6,7.93 3.18,-7.93 4.76,-31.72 1.59,-39.65 -23.85,-5.28 -50.87,-10.57 -65.18,-15.86 -34.97,-15.87 -41.33,-55.51 -44.51,-137.47 -3.17,-111.03 -4.77,-375.37 -4.77,-605.36 0,-248.5 1.6,-541.931 3.18,-629.161 3.18,-81.957 7.95,-126.899 47.69,-145.41 22.25,-10.571 50.87,-18.489 81.08,-23.778 4.76,-7.929 1.58,-34.371 -1.59,-39.652 -33.38,0 -90.62,7.93 -160.56,7.93 -77.89,0 -109.68,-7.93 -192.33,-7.93 -4.78,7.93 -3.19,34.359 0,39.652 22.24,2.641 52.45,10.571 71.52,18.5 39.73,13.219 46.1,52.867 49.28,113.668 3.18,63.449 4.77,520.781 4.77,740.191 0,198.27 0,404.46 -3.18,526.06 -4.77,63.45 -3.18,118.97 -39.74,134.83 -17.48,7.93 -47.68,15.86 -85.84,23.79 -4.77,5.29 -1.59,34.36 1.59,39.65" style="fill:#737e8c;fill-opacity:1;fill-rule:nonzero;stroke:none" id="path14"></path><path d="m 5358.95,2304.72 c 28.6,0 111.27,-7.93 184.39,-7.93 66.76,0 114.44,7.93 152.6,7.93 3.18,-7.93 4.76,-31.72 1.59,-39.65 -23.85,-5.28 -50.87,-10.57 -65.18,-15.86 -34.97,-15.87 -41.33,-55.51 -44.51,-137.47 -3.17,-111.03 -4.76,-375.37 -4.76,-605.36 0,-248.5 1.59,-541.931 3.17,-629.161 3.18,-81.957 7.96,-126.899 47.7,-145.41 22.24,-10.571 50.87,-18.489 81.06,-23.778 4.78,-7.929 1.59,-34.371 -1.58,-39.652 -33.39,0 -90.62,7.93 -160.56,7.93 -77.89,0 -109.68,-7.93 -192.33,-7.93 -4.78,7.93 -3.19,34.359 0,39.652 22.24,2.641 52.45,10.571 71.52,18.5 39.74,13.219 46.1,52.867 49.28,113.668 3.18,63.449 4.76,520.781 4.76,740.191 0,198.27 0,404.46 -3.17,526.06 -4.77,63.45 -3.17,118.97 -39.74,134.83 -17.49,7.93 -47.68,15.86 -85.84,23.79 -4.77,5.29 -1.59,34.36 1.6,39.65" style="fill:#737e8c;fill-opacity:1;fill-rule:nonzero;stroke:none" id="path16"></path><path d="m 5799.25,2304.72 c 28.6,0 111.27,-7.93 184.39,-7.93 66.76,0 114.45,7.93 152.6,7.93 3.18,-7.93 4.77,-31.72 1.59,-39.65 -23.85,-5.28 -50.87,-10.57 -65.17,-15.86 -34.97,-15.87 -41.34,-55.51 -44.51,-137.47 -3.18,-111.03 -4.77,-375.37 -4.77,-605.36 0,-248.5 1.59,-541.931 3.17,-629.161 3.19,-81.957 7.96,-126.899 47.7,-145.41 22.24,-10.571 50.87,-18.489 81.07,-23.778 4.77,-7.929 1.58,-34.371 -1.59,-39.652 -33.38,0 -90.61,7.93 -160.56,7.93 -77.89,0 -109.67,-7.93 -192.33,-7.93 -4.77,7.93 -3.18,34.359 0,39.652 22.25,2.641 52.45,10.571 71.52,18.5 39.74,13.219 46.11,52.867 49.28,113.668 3.18,63.449 4.77,520.781 4.77,740.191 0,198.27 0,404.46 -3.18,526.06 -4.76,63.45 -3.17,118.97 -39.73,134.83 -17.49,7.93 -47.69,15.86 -85.84,23.79 -4.78,5.29 -1.59,34.36 1.59,39.65" style="fill:#737e8c;fill-opacity:1;fill-rule:nonzero;stroke:none" id="path18"></path><path d="m 1887.81,1774.22 c -23.47,46.05 -57.73,82.63 -102.79,109.81 -22.53,12.97 -46.25,22.42 -71.11,28.33 -24.89,5.9 -50.94,8.86 -78.16,8.86 -19.7,0 -35.68,-0.61 -47.87,-1.77 -12.22,-1.19 -21.61,-2.38 -28.16,-3.54 -0.95,-7.09 -1.9,-13.29 -2.81,-18.6 -0.95,-5.31 -1.66,-12.12 -2.12,-20.37 -0.48,-8.28 -0.95,-19.78 -1.41,-34.53 -0.49,-14.78 -1.19,-35.73 -2.11,-62.88 -0.95,-41.34 -1.65,-87.98 -2.12,-139.92 -0.48,-51.97 -0.7,-102.14 -0.7,-150.54 0,-48.43 0,-90.94 0,-127.52 0,-35.43 0,-57.87 0,-67.31 38.48,0 74.39,2.05 107.72,6.2 33.31,4.12 65.48,12.68 96.47,25.68 30.03,11.79 55.84,27.73 77.44,47.83 21.59,20.06 39.19,42.78 52.81,68.18 13.6,25.38 23.69,52.83 30.27,82.36 6.56,29.5 9.86,60.21 9.86,92.1 0,59.02 -11.75,111.58 -35.21,157.63 z M 2027.23,670.809 c -8.46,10.621 -14.57,18.589 -18.31,23.91 -3.76,5.312 -7.99,11.511 -12.68,18.601 -4.71,7.078 -10.56,17.399 -17.6,30.989 -7.04,13.562 -18.08,33.929 -33.09,61.113 -17.84,33.039 -33.58,62.867 -47.17,89.43 -13.62,26.57 -27.46,52.828 -41.54,78.82 -14.09,25.957 -29.36,52.248 -45.77,78.818 -16.43,26.56 -35.9,56.37 -58.43,89.44 -18.79,27.15 -39.21,52.52 -61.26,76.15 -22.07,23.61 -45.31,38.36 -69.71,44.28 -17.84,4.71 -31.45,7.09 -40.83,7.09 -8.45,0 -19.26,0.58 -32.39,1.77 0,-76.77 0,-143.46 0,-200.14 0,-56.68 0.47,-104.49 1.41,-143.451 0.92,-37.809 1.87,-70.27 2.82,-97.418 0.92,-27.172 6.09,-49.602 15.48,-67.301 7.5,-15.359 22.06,-31 43.66,-46.941 21.58,-15.938 51.62,-25.098 90.12,-27.449 v -17.711 h -450.61 v 17.711 c 23.46,4.699 45.99,11.789 67.6,21.25 21.58,9.441 38.47,23.609 50.69,42.511 4.69,7.078 8.45,17.707 11.26,31.879 2.82,14.168 4.93,30.11 6.34,47.82 1.4,17.719 2.58,36.579 3.52,56.68 0.92,20.059 1.41,39.539 1.41,58.449 0,16.512 0.21,38.961 0.7,67.291 0.46,28.34 0.92,59.34 1.41,92.99 0.46,33.65 0.7,68.19 0.7,103.61 0,36.59 0,70.84 0,102.72 v 345.37 c 0,21.25 -0.24,42.79 -0.7,64.65 -0.49,21.83 -1.41,42.51 -2.81,61.99 -1.42,19.48 -3.77,37.19 -7.04,53.13 -3.31,15.94 -7.75,27.46 -13.38,34.54 -14.09,18.87 -29.82,31.57 -47.18,38.08 -17.38,6.47 -38.72,12.09 -64.07,16.82 v 17.72 c 7.51,0 26.75,0 57.73,0 31.9,0 68.06,0.27 108.43,0.88 40.35,0.58 80.73,0.89 121.1,0.89 40.35,0 73.22,0 98.58,0 62.88,0 118.74,-2.39 167.56,-7.09 48.8,-4.73 93.4,-20.67 133.78,-47.82 41.29,-27.17 74.63,-64.06 99.97,-110.69 25.36,-46.66 38.03,-105.39 38.03,-176.23 0,-43.69 -6.34,-82.96 -19.01,-117.78 -12.68,-34.84 -29.57,-65.53 -50.7,-92.1 -21.12,-26.56 -45.76,-49.31 -73.92,-68.19 -28.17,-18.9 -57.74,-34.84 -88.72,-47.82 v -5.31 c 15.96,-10.63 31.44,-25.99 46.47,-46.05 15,-20.09 29.57,-42.51 43.66,-67.3 24.4,-44.89 50.9,-93.29 79.56,-145.23 28.62,-51.969 54.2,-98.032 76.74,-138.149 34.72,-61.41 68.52,-106.261 101.39,-134.601 32.84,-28.34 71.33,-46.66 115.47,-54.91 v -17.711 h -288.67" style="fill:#66a4c1;fill-opacity:1;fill-rule:nonzero;stroke:none" id="path20"></path><path d="m 3186.12,670.809 h -861.78 v 17.711 c 23.44,4.699 45.28,12.402 65.48,23.019 20.17,10.641 36.82,25.383 49.99,44.281 4.68,7.09 8.44,17.41 11.26,30.989 2.82,13.57 5.39,29.23 7.74,46.941 2.33,17.711 3.98,36.309 4.93,55.789 0.93,19.481 1.41,38.66 1.41,57.57 0,16.512 0.22,38.961 0.7,67.291 0.47,28.34 0.93,59.34 1.42,92.99 0.46,33.65 0.7,68.19 0.7,103.61 0,36.59 0,70.84 0,102.72 v 345.37 c 0,21.25 -0.24,43.09 -0.7,65.54 -0.49,22.41 -1.42,43.66 -2.83,63.76 -1.4,20.06 -3.76,38.07 -7.04,54.02 -3.3,15.93 -7.74,27.45 -13.38,34.53 -14.08,18.87 -29.1,31 -45.05,36.31 -15.98,5.31 -36.62,10.32 -61.97,15.05 v 17.72 h 777.31 l 95.75,-292.24 -14.08,-8.85 c -76.04,119.24 -147.4,199.52 -214.04,240.87 -15.97,9.43 -45.54,17.71 -88.72,24.79 -43.18,7.09 -95.75,10.63 -157.7,10.63 -19.72,0 -40.14,-0.88 -61.26,-2.66 -21.12,-1.77 -36.39,-3.85 -45.76,-6.2 -1.9,-18.9 -3.53,-57.86 -4.93,-116.89 -1.41,-59.06 -2.11,-127.52 -2.11,-205.45 0,-44.88 0,-82.66 0,-113.35 0,-30.72 0.21,-55.79 0.7,-75.28 0.46,-19.48 0.7,-34.53 0.7,-45.16 0,-9.46 0,-15.94 0,-19.48 4.69,0 14.08,0 28.17,0 14.08,0 30.27,0.58 48.58,1.77 18.3,1.16 36.61,2.66 54.91,4.43 18.31,1.77 33.56,4.43 45.77,7.97 28.17,8.24 51.61,19.48 70.4,33.65 18.77,14.17 34.03,31.27 45.78,51.36 11.72,20.06 21.12,43.39 28.16,69.96 7.04,26.57 13.37,56.38 19,89.45 h 16.91 v -557.91 h -16.91 c -7.52,37.77 -19,76.74 -34.5,116.89 -15.49,40.13 -31.68,70.24 -48.57,90.33 -15.03,16.53 -33.1,30.11 -54.22,40.74 -21.12,10.62 -45.76,17.1 -73.93,19.48 -14.08,1.16 -25.83,2.05 -35.2,2.66 -9.4,0.58 -18.79,0.88 -28.17,0.88 -8.44,0 -17.84,0 -28.16,0 -9.4,0 -21.6,0 -36.61,0 -1.9,-16.55 -2.81,-40.74 -2.81,-72.62 0,-31.88 0,-64.94 0,-99.18 0,-15.36 0,-33.07 0,-53.13 0,-20.09 0,-40.15 0,-60.22 0,-18.9 0.21,-36.908 0.7,-54.01 0.46,-17.141 0.7,-31.609 0.7,-43.398 0.93,-37.801 2.58,-73.5 4.93,-107.153 2.34,-33.648 7.75,-58.75 16.19,-75.269 8.45,-16.559 28.63,-28.34 60.55,-35.418 31.91,-7.09 66.65,-10.641 104.21,-10.641 15.95,0 36.37,0.59 61.25,1.777 24.86,1.161 50.92,4.122 78.16,8.864 30.02,4.687 57.73,13.847 83.08,27.449 25.34,13.551 49.75,32.758 73.22,57.559 23.45,24.789 46.22,55.179 68.29,91.21 22.06,36 44.83,79.391 68.31,130.17 l 15.48,-5.31 -70.41,-338.281" style="fill:#66a4c1;fill-opacity:1;fill-rule:nonzero;stroke:none" id="path22"></path><path d="m 4597.8,1903.51 c -16.43,-13.01 -26.05,-21.87 -28.86,-26.57 -2.83,-3.54 -7.04,-9.46 -12.68,-17.71 -5.63,-8.28 -12.22,-19.79 -19.72,-34.54 -7.52,-14.78 -15.48,-33.65 -23.93,-56.67 -8.45,-23.03 -17.38,-51.67 -26.76,-85.9 -15.03,-57.87 -32.38,-121.93 -52.1,-192.17 -19.72,-70.26 -39.67,-142.57 -59.85,-216.96 -20.19,-74.39 -40.61,-149.08 -61.25,-224.05 -20.66,-74.999 -39.92,-146.108 -57.74,-213.409 L 4195.77,665.5 h -14.08 c -25.34,85.012 -49.06,166.48 -71.1,244.41 -22.07,77.93 -43.2,152.9 -63.37,224.93 -20.21,72.01 -39.67,141.97 -58.44,209.88 -18.79,67.89 -38.03,134.88 -57.73,201.02 -15.03,-54.32 -30.99,-111.3 -47.89,-170.91 -16.89,-59.63 -33.79,-120.16 -50.69,-181.54 -16.89,-61.41 -33.8,-121.93 -50.69,-181.54 -16.9,-59.641 -33.33,-117.199 -49.29,-172.691 L 3670.54,665.5 h -16.91 c -29.11,95.629 -56.56,186.539 -82.37,272.75 -25.83,86.17 -50.69,169.14 -74.63,248.84 -23.94,79.7 -47.18,157.02 -69.71,232.02 -22.52,74.96 -45.05,149.66 -67.58,224.04 -6.59,22.42 -12.46,41.9 -17.61,58.45 -5.17,16.53 -9.85,31.88 -14.08,46.05 -4.22,14.17 -8.69,27.73 -13.38,40.74 -4.71,12.98 -9.86,26.56 -15.49,40.73 -2.81,7.08 -6.82,15.94 -11.96,26.57 -5.18,10.63 -12.46,20.95 -21.84,30.99 -9.39,10.02 -20.65,18.87 -33.8,26.57 -13.13,7.67 -30.03,12.09 -50.69,13.28 v 19.49 h 397.11 v -17.72 c -4.71,0 -12.68,-1.19 -23.95,-3.54 -11.26,-2.38 -23,-6.5 -35.19,-12.4 -12.22,-5.91 -22.78,-14.77 -31.69,-26.56 -8.94,-11.82 -13.38,-27.76 -13.38,-47.82 0,-10.63 4.93,-35.15 14.78,-73.5 9.87,-38.39 22.76,-85.02 38.73,-139.92 15.95,-54.91 33.56,-114.85 52.81,-179.77 19.23,-64.95 38.48,-129.02 57.73,-192.17 19.23,-63.18 37.32,-122.21 54.22,-177.1 16.9,-54.92 30.49,-100.079 40.83,-135.5 2.82,9.429 9.86,33.921 21.12,73.5 11.27,39.54 25.36,89.14 42.25,148.77 16.89,59.61 35.66,126.92 56.33,201.91 20.63,74.97 41.3,153.21 61.95,234.68 -14.08,47.21 -26.75,88.83 -38.02,124.86 -11.26,36 -23.47,71.12 -36.61,105.38 -3.76,9.44 -8.69,19.48 -14.78,30.11 -6.12,10.63 -14.57,20.95 -25.35,30.99 -10.81,10.02 -24.18,18.3 -40.13,24.8 -15.98,6.48 -35.21,10.32 -57.74,11.51 v 19.49 h 440.76 v -17.72 c -5.64,-1.19 -15.74,-2.96 -30.28,-5.31 -14.57,-2.38 -29.11,-6.81 -43.65,-13.29 -14.57,-6.5 -27.7,-15.66 -39.43,-27.45 -11.75,-11.81 -17.6,-26.56 -17.6,-44.27 0,-7.09 5.15,-31 15.49,-71.73 10.32,-40.74 23.45,-90.33 39.42,-148.78 15.96,-58.44 33.8,-121.93 53.52,-190.39 19.71,-68.5 38.47,-134.33 56.33,-197.48 17.82,-63.18 34.01,-119.86 48.57,-170.03 14.55,-50.2 25.11,-86.511 31.69,-108.929 2.81,8.25 7.74,25.687 14.78,52.249 7.04,26.57 15.95,59.03 26.75,97.42 10.78,38.35 22.54,81.16 35.21,128.4 12.67,47.21 25.35,95.34 38.01,144.35 12.68,48.98 25.36,97.99 38.03,147 12.67,48.98 24.15,94.76 34.49,137.26 13.14,54.3 20.65,93.87 22.53,118.67 1.88,24.8 2.83,43.08 2.83,54.9 0,17.71 -4.23,32.16 -12.68,43.4 -8.45,11.2 -18.79,20.64 -30.98,28.33 -12.21,7.67 -25.35,13.56 -39.43,17.72 -14.08,4.12 -26.75,6.77 -38.02,7.96 v 17.72 h 309.8 v -17.72 c -23.48,-3.54 -43.44,-11.81 -59.85,-24.79" style="fill:#66a4c1;fill-opacity:1;fill-rule:nonzero;stroke:none" id="path24"></path><path d="m 1192.56,1758 c -15.06,70.82 -37.63,137.23 -67.71,199.21 -30.1,61.98 -65.69,115.83 -106.75,161.58 -41.096,45.73 -87.397,81.9 -138.87,108.46 -51.503,26.56 -106.191,39.84 -164.042,39.84 -79.856,0 -151.028,-22.89 -213.516,-68.61 -62.492,-45.76 -114.863,-106.25 -157.102,-181.51 -42.254,-75.25 -74.636,-160.47 -97.207,-255.65 -22.566,-95.18 -33.847,-192.95 -33.847,-293.28 0,-106.25 11.855,-205.86 35.586,-298.82 23.703,-92.96 57.55,-173.759 101.543,-242.38 43.976,-68.61 97.218,-122.84 159.707,-162.68 62.492,-39.851 131.925,-59.769 208.312,-59.769 60.156,0 116.57,14.007 169.246,42.05 52.649,28.02 99.512,64.93 140.61,110.68 41.06,45.719 75.78,98.5 104.15,158.259 28.35,59.76 47.73,121.36 58.15,184.83 h 20.83 l -5.2,-486.96 h -20.83 c -13.89,25.07 -28.38,47.93 -43.4,68.609 -15.06,20.653 -25.47,30.993 -31.25,30.993 -2.34,0 -12.75,-7.743 -31.24,-23.243 -18.53,-15.488 -45.14,-32.468 -79.855,-50.91 -34.719,-18.469 -76.973,-34.687 -126.719,-48.687 -49.777,-14.024 -107.062,-21.043 -171.855,-21.043 -107.629,0 -204.836,19.543 -291.633,58.672 -86.797,39.078 -160.566,94.41 -221.328,166 C 127.59,965.199 80.9883,1050.8 48.6055,1150.4 16.1914,1250.01 0,1359.57 0,1479.1 c 0,26.56 1.4375,56.79 4.33594,90.75 2.88281,33.93 8.08596,70.08 15.62496,108.46 7.5118,38.36 17.9297,78.58 31.25,120.64 13.293,42.05 30.3711,84.45 51.2031,127.27 24.305,50.15 54.383,98.12 90.274,143.88 35.847,45.72 78.113,85.94 126.718,120.63 48.602,34.65 103.555,62.32 164.91,83 61.321,20.65 130.188,30.99 206.563,30.99 69.445,0 130.195,-8.13 182.277,-24.34 52.071,-16.26 95.469,-33.97 130.184,-53.13 34.72,-19.2 61.33,-36.9 79.85,-53.12 18.5,-16.25 28.92,-24.35 31.25,-24.35 2.31,0 6.64,3.32 13.02,9.96 6.35,6.64 13.29,14.74 20.83,24.35 7.51,9.58 15.32,20.64 23.44,33.2 8.08,12.52 15.61,25.45 22.56,38.73 h 19.1 v -495.81 l -20.83,-2.21" style="fill:#66a4c1;fill-opacity:1;fill-rule:nonzero;stroke:none" id="path26"></path><path d="m 468.625,334.102 c -5.43,-3.512 -8.613,-5.891 -9.551,-7.153 -0.929,-0.961 -2.324,-2.551 -4.179,-4.758 -1.868,-2.23 -4.043,-5.339 -6.524,-9.3 -2.492,-3.981 -5.129,-9.051 -7.91,-15.25 -2.805,-6.2 -5.754,-13.903 -8.859,-23.121 -4.961,-15.571 -10.704,-32.809 -17.215,-51.711 -6.524,-18.911 -13.125,-38.368 -19.797,-58.387 -6.68,-20.012 -13.426,-40.113 -20.254,-60.281 -6.824,-20.1918 -13.191,-39.3324 -19.09,-57.4301 L 335.695,0.960938 h -4.66 C 322.656,23.8281 314.816,45.75 307.52,66.7305 c -7.286,20.9609 -14.278,41.1405 -20.946,60.5195 -6.679,19.379 -13.117,38.211 -19.328,56.48 -6.211,18.27 -12.566,36.301 -19.082,54.09 -4.969,-14.621 -10.242,-29.949 -15.828,-45.992 C 226.738,175.781 221.152,159.5 215.578,142.98 209.98,126.449 204.395,110.16 198.809,94.1289 193.223,78.0703 187.785,62.5898 182.52,47.6484 L 162.031,0.960938 h -5.593 C 146.816,26.6914 137.734,51.1484 129.199,74.3398 c -8.535,23.1993 -16.758,45.5192 -24.676,66.9692 -7.9097,21.453 -15.5972,42.25 -23.0464,62.441 -7.4414,20.172 -14.8946,40.27 -22.3438,60.289 -2.1797,6.031 -4.1211,11.27 -5.8203,15.723 -1.7109,4.449 -3.2617,8.59 -4.6602,12.398 -1.3945,3.809 -2.871,7.461 -4.4218,10.961 -1.5547,3.488 -3.2539,7.149 -5.1172,10.961 -0.9375,1.898 -2.2578,4.289 -3.9649,7.148 -1.7109,2.86 -4.1132,5.629 -7.2187,8.34 -3.1055,2.692 -6.8242,5.078 -11.1719,7.149 -4.3437,2.062 -9.92967,3.25 -16.7578,3.57 v 5.25 h 131.301 v -4.769 c -1.563,0 -4.192,-0.321 -7.922,-0.961 -3.719,-0.629 -7.606,-1.75 -11.641,-3.329 -4.031,-1.589 -7.519,-3.968 -10.468,-7.152 -2.9575,-3.18 -4.4223,-7.469 -4.4223,-12.867 0,-2.859 1.6289,-9.449 4.8823,-19.77 3.262,-10.332 7.52,-22.882 12.813,-37.66 5.262,-14.769 11.094,-30.91 17.449,-48.383 6.36,-17.468 12.727,-34.707 19.094,-51.707 6.355,-17 12.344,-32.882 17.93,-47.652 5.586,-14.7773 10.078,-26.9374 13.504,-36.4687 0.929,2.5391 3.253,9.1289 6.984,19.7891 3.719,10.6286 8.379,23.9806 13.965,40.0316 5.586,16.039 11.785,34.148 18.621,54.328 6.828,20.179 13.652,41.222 20.488,63.152 -4.656,12.699 -8.848,23.899 -12.566,33.598 -3.731,9.691 -7.774,19.14 -12.11,28.363 -1.25,2.539 -2.882,5.238 -4.894,8.109 -2.02,2.86 -4.813,5.629 -8.379,8.34 -3.574,2.688 -7.996,4.918 -13.27,6.668 -5.285,1.731 -11.64,2.77 -19.093,3.09 v 5.25 h 145.742 v -4.769 c -1.863,-0.321 -5.203,-0.801 -10.02,-1.43 -4.812,-0.641 -9.617,-1.828 -14.433,-3.57 -4.813,-1.758 -9.16,-4.219 -13.035,-7.391 -3.879,-3.18 -5.821,-7.149 -5.821,-11.918 0,-1.902 1.707,-8.34 5.125,-19.301 3.41,-10.961 7.754,-24.308 13.039,-40.031 5.274,-15.738 11.172,-32.82 17.696,-51.238 6.511,-18.43 12.714,-36.153 18.613,-53.141 5.898,-17 11.25,-32.25 16.074,-45.75 4.805,-13.5195 8.289,-23.2812 10.469,-29.3203 0.926,2.2187 2.566,6.9219 4.89,14.0703 2.325,7.1406 5.274,15.879 8.84,26.211 3.575,10.32 7.45,21.84 11.649,34.551 4.191,12.699 8.379,25.648 12.57,38.847 4.188,13.18 8.379,26.36 12.566,39.563 4.192,13.168 7.989,25.488 11.407,36.93 4.347,14.609 6.828,25.257 7.453,31.929 0.613,6.668 0.937,11.598 0.937,14.778 0,4.761 -1.406,8.652 -4.199,11.679 -2.793,3.012 -6.211,5.551 -10.246,7.621 -4.031,2.071 -8.379,3.653 -13.027,4.762 -4.657,1.109 -8.856,1.828 -12.578,2.149 v 4.769 H 488.41 v -4.769 c -7.765,-0.961 -14.355,-3.18 -19.785,-6.668" style="fill:#66a4c1;fill-opacity:1;fill-rule:nonzero;stroke:none" id="path28"></path><path d="M 778.477,2.37891 H 493.535 v 4.76953 c 7.754,1.27344 14.973,3.33986 21.653,6.19136 6.66,2.8594 12.175,6.8321 16.523,11.9219 1.551,1.9102 2.793,4.6797 3.73,8.3399 0.926,3.6367 1.778,7.8593 2.559,12.6289 0.77,4.7578 1.316,9.7578 1.621,15.0078 0.313,5.2422 0.469,10.4101 0.469,15.4922 0,4.4492 0.078,10.4883 0.234,18.1093 0.156,7.6292 0.313,15.9692 0.469,25.0192 0.145,9.063 0.234,18.352 0.234,27.879 0,9.852 0,19.063 0,27.653 v 92.937 c 0,5.711 -0.089,11.594 -0.234,17.641 -0.156,6.019 -0.469,11.742 -0.938,17.152 -0.46,5.391 -1.242,10.25 -2.324,14.527 -1.093,4.293 -2.558,7.403 -4.426,9.301 -4.648,5.082 -9.617,8.34 -14.902,9.77 -5.273,1.429 -12.098,2.781 -20.488,4.051 v 4.769 h 257.012 l 31.671,-78.648 -4.66,-2.379 c -25.144,32.09 -48.738,53.687 -70.769,64.816 -5.285,2.543 -15.059,4.774 -29.336,6.672 -14.278,1.91 -31.66,2.871 -52.149,2.871 -6.515,0 -13.261,-0.25 -20.254,-0.723 -6.984,-0.476 -12.031,-1.027 -15.128,-1.668 -0.625,-5.089 -1.172,-15.57 -1.629,-31.449 -0.469,-15.902 -0.703,-34.32 -0.703,-55.301 0,-12.07 0,-22.23 0,-30.492 0,-8.269 0.078,-15.008 0.234,-20.258 0.156,-5.242 0.234,-9.289 0.234,-12.16 0,-2.539 0,-4.281 0,-5.238 1.551,0 4.657,0 9.317,0 4.648,0 10.008,0.156 16.062,0.477 6.047,0.312 12.102,0.711 18.156,1.191 6.055,0.48 11.094,1.191 15.137,2.148 9.305,2.223 17.059,5.243 23.27,9.051 6.211,3.821 11.25,8.422 15.136,13.821 3.879,5.402 6.985,11.679 9.317,18.832 2.324,7.148 4.414,15.168 6.281,24.07 H 710.5 V 101.031 h -5.586 c -2.492,10.168 -6.281,20.66 -11.406,31.469 -5.129,10.789 -10.481,18.891 -16.067,24.301 -4.968,4.449 -10.937,8.097 -17.929,10.961 -6.981,2.859 -15.125,4.597 -24.442,5.25 -4.648,0.308 -8.535,0.539 -11.632,0.707 -3.106,0.16 -6.219,0.242 -9.317,0.242 -2.793,0 -5.898,0 -9.316,0 -3.106,0 -7.137,0 -12.098,0 -0.637,-4.449 -0.937,-10.961 -0.937,-19.539 0,-8.582 0,-17.481 0,-26.692 0,-4.14 0,-8.902 0,-14.3 0,-5.399 0,-10.801 0,-16.2112 0,-5.0782 0.078,-9.9297 0.234,-14.5274 0.156,-4.6211 0.234,-8.5 0.234,-11.6797 0.301,-10.1719 0.848,-19.7812 1.629,-28.832 0.774,-9.0586 2.559,-15.8086 5.352,-20.2578 2.793,-4.4531 9.465,-7.6211 20.019,-9.5313 10.559,-1.9023 22.043,-2.85935 34.453,-2.85935 5.286,0 12.032,0.16016 20.254,0.48045 8.223,0.3086 16.836,1.0977 25.852,2.3789 9.922,1.2696 19.082,3.7305 27.461,7.3789 8.379,3.6602 16.453,8.8203 24.219,15.4922 7.753,6.6797 15.281,14.8594 22.578,24.5469 7.285,9.6914 14.824,21.3711 22.578,35.0312 l 5.125,-1.4179 -23.281,-91.04299" style="fill:#66a4c1;fill-opacity:1;fill-rule:nonzero;stroke:none" id="path30"></path><path d="m 951.203,291.199 c -1.855,-4.129 -4.57,-10.648 -8.144,-19.539 -3.567,-8.898 -7.989,-19.699 -13.262,-32.398 -5.285,-12.723 -11.106,-27.09 -17.461,-43.141 -6.367,-16.043 -13.273,-33.449 -20.723,-52.191 h 115.937 c -5.28,14.3 -10.644,28.601 -16.066,42.89 -5.437,14.301 -10.711,28.039 -15.828,41.231 -5.129,13.187 -9.785,25.258 -13.965,36.23 -4.199,10.949 -7.687,19.93 -10.488,26.918 z M 1012.2,2.37891 v 4.76953 c 0.94,0 3.18,0.3125 6.76,0.95312 3.56,0.62891 7.28,1.73828 11.17,3.32814 3.87,1.6016 7.28,3.8203 10.24,6.6797 2.94,2.8594 4.43,6.5117 4.43,10.9609 0,2.8594 -0.86,7.5508 -2.56,14.0586 -1.71,6.5117 -4.12,14.4609 -7.22,23.832 -3.11,9.3672 -6.68,19.7774 -10.71,31.2188 -4.04,11.4413 -8.38,23.3513 -13.04,35.7423 H 887.422 c -4.656,-12.082 -9.16,-23.59 -13.504,-34.5509 -4.348,-10.9609 -8.691,-22.0117 -13.039,-33.1211 -6.512,-17.1602 -9.774,-29.2383 -9.774,-36.2187 0,-4.1407 1.239,-7.5625 3.731,-10.2618 2.48,-2.6914 5.652,-4.9179 9.539,-6.6679 3.879,-1.7422 8.066,-3.0235 12.57,-3.80082 4.493,-0.8125 8.77,-1.51953 12.801,-2.15234 V 2.37891 h -99.168 v 5.25 c 8.074,0.9414 14.969,3.17189 20.723,6.67189 5.73,3.4883 9.07,5.8711 10.008,7.1406 2.168,2.2188 5.742,7.457 10.714,15.7383 4.961,8.25 11.004,20.4805 18.153,36.6992 6.515,14.9297 13.808,31.9301 21.887,50.9921 8.066,19.059 16.367,38.668 24.902,58.859 8.535,20.168 17,40.508 25.379,61 8.379,20.5 16.289,39.629 23.742,57.442 l -4.648,10.476 c 5.585,2.543 10.625,5.551 15.125,9.063 4.503,3.488 8.457,7.148 11.875,10.949 3.41,3.82 6.289,7.469 8.613,10.969 2.324,3.5 4.101,6.351 5.351,8.582 h 3.723 c 9.617,-26.383 18.775,-51.402 27.465,-75.063 8.7,-23.679 17.01,-46.476 24.92,-68.398 7.91,-21.93 15.59,-43.141 23.04,-63.621 7.45,-20.5 14.91,-40.758 22.36,-60.7774 3.41,-9.8516 6.59,-18.0313 9.54,-24.543 2.95,-6.5078 6.29,-13.8984 10.01,-22.1602 0.61,-1.2695 2.02,-3.5 4.19,-6.6796 2.17,-3.168 5.05,-6.4297 8.61,-9.7579 3.56,-3.3398 7.99,-6.2812 13.27,-8.8203 5.28,-2.55076 11.48,-3.96872 18.62,-4.28904 V 2.37891 H 1012.2" style="fill:#66a4c1;fill-opacity:1;fill-rule:nonzero;stroke:none" id="path32"></path><path d="m 1448,2.37891 h -298.92 v 4.76953 c 7.76,1.27344 15.44,3.33986 23.05,6.19136 7.61,2.8594 13.57,6.8321 17.93,11.9219 1.54,1.9102 2.86,4.6797 3.95,8.3399 1.09,3.6367 1.94,7.8593 2.56,12.6289 0.62,4.7578 1.17,9.7578 1.63,15.0078 0.47,5.2422 0.71,10.4101 0.71,15.4922 0,4.4492 0.07,10.4883 0.23,18.1093 0.15,7.6292 0.3,15.9692 0.46,25.0192 0.16,9.063 0.23,18.352 0.23,27.879 0,9.852 0,19.063 0,27.653 v 92.461 c 0,5.718 0,11.277 0,16.679 0,5.719 -0.23,11.028 -0.69,15.969 -0.47,4.922 -1.16,9.289 -2.1,13.102 -0.93,3.82 -2.33,6.828 -4.19,9.046 -4.35,5.403 -10.16,9.551 -17.46,12.403 -7.29,2.859 -14.98,4.758 -23.05,5.719 v 4.769 h 148.53 v -4.769 c -4.03,-0.641 -8.85,-1.59 -14.43,-2.86 -5.59,-1.269 -10.87,-3.332 -15.83,-6.191 -4.97,-2.86 -9.24,-6.918 -12.81,-12.16 -3.57,-5.25 -5.51,-12.149 -5.82,-20.731 -0.31,-11.129 -0.54,-21.289 -0.7,-30.5 -0.16,-9.219 -0.31,-18.277 -0.46,-27.168 -0.17,-8.898 -0.23,-18.109 -0.23,-27.648 0,-9.532 0,-20.172 0,-31.93 0,-10.801 0,-20.652 0,-29.543 0,-8.578 0,-17 0,-25.258 0,-8.281 0.06,-16.769 0.23,-25.5 0.15,-8.7419 0.24,-18.5193 0.24,-29.3201 0.3,-10.1601 0.69,-19.8515 1.16,-29.0703 0.47,-9.2187 2.09,-16.0508 4.88,-20.4922 1.24,-1.5898 3.73,-3.1796 7.45,-4.7578 3.72,-1.6015 8.22,-2.9414 13.51,-4.0586 5.27,-1.1132 11.01,-2.0703 17.22,-2.8632 6.21,-0.79692 12.42,-1.18755 18.63,-1.18755 2.48,0 6.43,0.07813 11.87,0.23047 5.42,0.16016 11.41,0.47658 17.92,0.95708 6.53,0.4804 13.2,1.1914 20.02,2.1523 6.83,0.9492 12.88,2.2187 18.17,3.8086 12.41,3.4922 22.73,8.1016 30.95,13.8203 8.23,5.7188 15.29,12.3086 21.19,19.7813 5.89,7.457 10.86,15.5703 14.9,24.3085 4.03,8.7305 7.92,17.8711 11.64,27.3982 l 4.66,-1.429 L 1448,2.37891" style="fill:#66a4c1;fill-opacity:1;fill-rule:nonzero;stroke:none" id="path34"></path><path d="m 1807.9,255.941 c -2.49,5.719 -5.43,11.68 -8.85,17.868 -3.4,6.203 -6.9,11.992 -10.47,17.39 -3.57,5.403 -7.07,10.41 -10.47,15.02 -3.42,4.601 -6.37,8.019 -8.85,10.242 -6.52,6.359 -13.59,10.559 -21.18,12.629 -7.61,2.07 -17.31,3.262 -29.1,3.57 -5.9,0 -11.03,0.078 -15.37,0.25 -4.35,0.149 -8.7,0.231 -13.03,0.231 -4.05,0 -8.55,0 -13.51,0 -4.66,0 -10.4,0 -17.23,0 0,-7.942 -0.07,-18.75 -0.23,-32.411 -0.16,-13.66 -0.23,-27.96 -0.23,-42.89 0,-14.942 0,-29.719 0,-44.328 0,-14.293 0,-26.371 0,-36.223 V 71.4883 c 0,-9.2188 0.23,-18.0274 0.7,-26.4492 0.47,-8.418 1.93,-14.3907 4.42,-17.8672 4.66,-7 11.24,-11.7617 19.79,-14.3008 8.53,-2.5508 16.21,-4.44922 23.04,-5.72266 V 2.37891 h -151.31 v 4.76953 c 8.06,0.95312 15.83,2.54297 23.28,4.76176 7.45,2.2187 14.73,7.4609 21.88,15.7304 1.56,1.5899 2.72,4.1992 3.49,7.8711 0.77,3.6485 1.4,7.7774 1.86,12.3867 0.47,4.6016 0.78,9.6133 0.93,15.0118 0.16,5.3984 0.24,10.6406 0.24,15.7304 0,4.4375 0.07,10.3203 0.23,17.6289 0.16,7.3125 0.3,15.4105 0.47,24.3005 0.16,8.899 0.22,18.121 0.22,27.649 0,9.531 0,18.582 0,27.172 v 157.75 c -6.51,0 -12.25,0 -17.21,0 -4.66,0 -9.16,0 -13.51,0 -4.03,0 -8.31,-0.082 -12.8,-0.231 -4.5,-0.172 -9.71,-0.25 -15.61,-0.25 -11.79,-0.308 -21.49,-1.738 -29.09,-4.281 -7.62,-2.551 -14.67,-6.988 -21.19,-13.34 -2.48,-2.23 -5.35,-5.57 -8.6,-10.008 -3.28,-4.461 -6.68,-9.301 -10.26,-14.543 -3.56,-5.25 -6.98,-10.886 -10.23,-16.918 -3.26,-6.039 -5.82,-11.91 -7.69,-17.629 l -4.19,1.418 13.97,90.563 c 7.14,-1.594 13.74,-2.863 19.79,-3.813 6.05,-0.961 14.82,-1.589 26.3,-1.91 11.8,-0.32 22.36,-0.558 31.66,-0.719 9.32,-0.16 18.32,-0.23 27,-0.23 8.7,0 17.54,0 26.55,0 9.31,0 19.7,0 31.2,0 11.47,0 21.72,0 30.72,0 9.32,0 18.31,0.07 27,0.23 8.69,0.161 17.7,0.321 27.01,0.481 9.31,0.16 19.86,0.238 31.66,0.238 10.25,0.321 18.7,1.192 25.38,2.621 6.67,1.43 13.57,3.25 20.72,5.481 l 14.89,-92.942 -4.19,-1.418" style="fill:#66a4c1;fill-opacity:1;fill-rule:nonzero;stroke:none" id="path36"></path><path d="m 2058.86,2.37891 v 4.76953 c 11.48,0.95312 21.1,3.08986 28.87,6.43356 7.75,3.3399 12.88,7.0664 15.36,11.1993 0.62,0.9492 1.16,2.8593 1.63,5.7187 0.47,2.8594 0.85,6.1992 1.16,10.0117 0.31,3.8086 0.55,7.7774 0.7,11.9102 0.15,4.1289 0.24,8.1094 0.24,11.9179 0.3,10.4805 0.47,21.2813 0.47,32.4102 0,11.441 0,22.078 0,31.93 0,10.172 0,19.058 0,26.691 0,7.938 0,13.508 0,16.68 H 1923.37 V 69.5781 c 0,-9.2187 0.15,-18.1093 0.47,-26.6875 0.3,-8.582 1.7,-14.6211 4.19,-18.1093 3.72,-5.4102 8.99,-9.5313 15.83,-12.3907 6.82,-2.85935 13.5,-4.60935 20.02,-5.24216 V 2.37891 h -137.36 v 4.76953 c 7.77,1.27344 15.21,3.40236 22.36,6.43356 7.13,3.0196 12.57,6.75 16.29,11.1993 1.24,1.5898 2.25,4.207 3.02,7.8593 0.78,3.6602 1.41,7.8711 1.87,12.6289 0.47,4.7696 0.85,9.9297 1.16,15.5 0.3,5.5508 0.47,10.8789 0.47,15.961 0,4.4492 0.07,10.4883 0.23,18.1093 0.16,7.6292 0.31,15.9692 0.46,25.0192 0.16,9.063 0.24,18.352 0.24,27.879 0,9.852 0,19.063 0,27.653 v 92.937 c 0,5.711 0,11.434 0,17.16 0,5.711 -0.24,11.032 -0.7,15.961 -0.46,4.93 -1.16,9.371 -2.1,13.34 -0.92,3.981 -2.32,7.07 -4.18,9.301 -4.35,5.398 -9.71,9.301 -16.07,11.68 -6.37,2.378 -13.58,4.039 -21.65,5 v 4.769 h 138.75 v -4.769 c -4.35,-0.641 -9,-1.59 -13.96,-2.86 -4.97,-1.269 -9.48,-3.262 -13.51,-5.961 -4.03,-2.699 -7.45,-6.429 -10.24,-11.199 -2.8,-4.77 -4.35,-10.801 -4.65,-18.109 -0.32,-11.129 -0.56,-23.11 -0.71,-35.981 -0.15,-12.871 -0.23,-25.191 -0.23,-36.941 0,-11.438 0,-21.61 0,-30.5 0,-8.578 0,-14.469 0,-17.637 h 183.92 c 0,10.168 0,19.387 0,27.648 0,8.579 0,16.829 0,24.782 0,7.937 0,16.039 0,24.308 0,8.262 -0.17,17.641 -0.47,28.11 -0.32,6.039 -0.71,12.32 -1.16,18.832 -0.47,6.519 -1.95,11.84 -4.43,15.968 -5.58,8.579 -11.95,13.899 -19.09,15.969 -7.15,2.063 -14.28,3.25 -21.42,3.571 v 4.769 h 140.14 v -4.769 c -7.44,-0.961 -14.74,-3.098 -21.87,-6.442 -7.15,-3.328 -12.43,-8.18 -15.83,-14.527 -1.25,-2.223 -2.18,-5.332 -2.8,-9.289 -0.62,-3.981 -1.09,-8.422 -1.4,-13.352 -0.31,-4.93 -0.46,-9.941 -0.46,-15.012 0,-5.089 0,-10.007 0,-14.777 v -81.492 c 0,-11.758 0,-22.41 0,-31.938 0,-9.222 0,-18.429 0,-27.64 0,-8.903 0.07,-18.11 0.23,-27.6526 0.16,-9.5273 0.23,-20.0078 0.23,-31.4492 0,-9.2187 0.23,-17.7187 0.7,-25.5 0.47,-7.789 1.63,-13.1094 3.5,-15.9687 4.03,-6.3594 9.46,-10.8008 16.28,-13.3399 6.83,-2.55076 14.28,-4.28904 22.36,-5.24216 V 2.37891 h -142.94" style="fill:#66a4c1;fill-opacity:1;fill-rule:nonzero;stroke:none" id="path38"></path><path d="m 2609.65,2.37891 v 5.25 c 13.34,0.63281 24.52,3.48049 33.52,8.57029 9,5.0821 15.05,10.9727 18.16,17.6406 1.86,4.129 3.26,9.2891 4.2,15.4805 0.93,6.211 1.54,12.4805 1.85,18.8281 0.63,20.9727 0.94,40.9926 0.94,60.0506 0,19.071 0,38.77 0,59.102 v 134.89 c -10.24,-23.519 -19.64,-45.132 -28.17,-64.832 -8.54,-19.699 -17,-38.918 -25.37,-57.66 -8.38,-18.75 -16.85,-37.898 -25.38,-57.437 -8.54,-19.543 -17.92,-41.063 -28.17,-64.5823 -1.56,-3.1797 -3.72,-8.1797 -6.52,-15.0078 -2.8,-6.8321 -5.59,-13.8203 -8.38,-20.9727 -2.79,-7.1484 -5.43,-13.6601 -7.91,-19.539 -2.49,-5.8789 -4.04,-9.7696 -4.66,-11.6719 h -2.79 c -9.94,23.5 -19.79,46.8633 -29.57,70.0625 -9.78,23.1872 -19.32,45.5082 -28.64,66.9612 -9.3,21.437 -18,41.539 -26.07,60.289 -8.08,18.738 -15.36,35.418 -21.88,50.039 -6.52,14.609 -11.87,26.851 -16.06,36.699 -4.2,9.84 -7.07,16.512 -8.61,20.02 0,-20.981 -0.09,-39.481 -0.24,-55.528 -0.16,-16.043 -0.31,-31.929 -0.47,-47.652 -0.15,-15.738 -0.23,-32.34 -0.23,-49.809 0,-17.48 0,-37.82 0,-61.011 0,-14.9379 0.47,-27.8793 1.4,-38.8402 0.93,-10.9571 3.26,-20.1797 6.99,-27.6485 3.72,-7.4609 9.37,-13.3398 16.98,-17.6289 7.61,-4.293 18.09,-7.39062 31.44,-9.29296 V 2.37891 h -121.53 v 4.76953 c 10.86,2.21094 19.71,5.48046 26.55,9.77346 6.81,4.289 12.25,10.25 16.29,17.8672 4.03,7.6328 6.98,17.0703 8.84,28.3593 1.87,11.2735 2.95,25.0235 3.26,41.2226 0.62,13.668 1.09,29.789 1.4,48.379 0.3,18.59 0.46,38.531 0.46,59.82 0,9.211 0,16.989 0,23.352 0,6.348 0,12.387 0,18.109 0,6.028 0,12.231 0,18.59 0,6.348 -0.16,14.129 -0.46,23.348 -0.31,8.89 -2.18,16.121 -5.58,21.679 -3.42,5.563 -7.46,9.942 -12.11,13.114 -4.65,3.168 -9.62,5.476 -14.9,6.91 -5.28,1.43 -9.78,2.457 -13.5,3.098 v 4.769 h 99.17 L 2555.18,86.2695 c 13.65,30.1715 27,60.1995 40.04,90.0825 13.03,29.847 24.75,56.859 35.15,81.007 10.39,24.153 18.93,44.25 25.61,60.289 6.67,16.051 10.48,25.34 11.4,27.891 h 99.17 v -4.769 c -12.72,-0.321 -22.42,-3.032 -29.1,-8.11 -6.67,-5.07 -11.25,-11.121 -13.73,-18.101 -1.85,-5.411 -3.1,-13.829 -3.72,-25.258 -0.62,-11.442 -1.09,-22.719 -1.4,-33.84 -0.31,-15.262 -0.46,-30.031 -0.46,-44.332 0,-14.301 0,-28.758 0,-43.367 0,-17.16 0,-34.313 0,-51.473 0,-16.8476 0.15,-34.6288 0.46,-53.3788 0,-6.0391 0.38,-12.1485 1.17,-18.3516 0.77,-6.1875 2.1,-11.0469 3.95,-14.5273 0.3,-0.6524 1.48,-2.1524 3.5,-4.5313 2.01,-2.3906 4.88,-4.9414 8.61,-7.6289 3.72,-2.7109 8.38,-5.0898 13.97,-7.1523 5.58,-2.07036 12.1,-3.25786 19.56,-3.57036 V 2.37891 h -159.71" style="fill:#66a4c1;fill-opacity:1;fill-rule:nonzero;stroke:none" id="path40"></path><path d="m 2929.98,291.199 c -1.86,-4.129 -4.58,-10.648 -8.15,-19.539 -3.57,-8.898 -7.99,-19.699 -13.26,-32.398 -5.29,-12.723 -11.11,-27.09 -17.47,-43.141 -6.36,-16.043 -13.27,-33.449 -20.71,-52.191 h 115.93 c -5.28,14.3 -10.64,28.601 -16.07,42.89 -5.43,14.301 -10.7,28.039 -15.83,41.231 -5.12,13.187 -9.77,25.258 -13.96,36.23 -4.19,10.949 -7.69,19.93 -10.48,26.918 z m 61,-288.82009 v 4.76953 c 0.92,0 3.17,0.3125 6.75,0.95312 3.56,0.62891 7.29,1.73828 11.17,3.32814 3.87,1.6016 7.29,3.8203 10.24,6.6797 2.95,2.8594 4.43,6.5117 4.43,10.9609 0,2.8594 -0.86,7.5508 -2.56,14.0586 -1.71,6.5117 -4.12,14.4609 -7.22,23.832 -3.11,9.3672 -6.68,19.7774 -10.71,31.2188 -4.04,11.4413 -8.38,23.3513 -13.04,35.7423 h -123.85 c -4.66,-12.082 -9.16,-23.59 -13.5,-34.5509 -4.35,-10.9609 -8.7,-22.0117 -13.04,-33.1211 -6.51,-17.1602 -9.77,-29.2383 -9.77,-36.2187 0,-4.1407 1.23,-7.5625 3.72,-10.2618 2.48,-2.6914 5.66,-4.9179 9.55,-6.6679 3.87,-1.7422 8.06,-3.0235 12.57,-3.80082 4.5,-0.8125 8.76,-1.51953 12.81,-2.15234 V 2.37891 h -99.17 v 5.25 c 8.06,0.9414 14.96,3.17189 20.71,6.67189 5.74,3.4883 9.08,5.8711 10.01,7.1406 2.17,2.2188 5.74,7.457 10.71,15.7383 4.96,8.25 11.02,20.4805 18.16,36.6992 6.52,14.9297 13.8,31.9301 21.88,50.9921 8.07,19.059 16.37,38.668 24.91,58.859 8.53,20.168 16.99,40.508 25.37,61 8.38,20.5 16.3,39.629 23.75,57.442 l -4.65,10.476 c 5.58,2.543 10.62,5.551 15.12,9.063 4.5,3.488 8.46,7.148 11.88,10.949 3.41,3.82 6.29,7.469 8.61,10.969 2.33,3.5 4.11,6.351 5.35,8.582 h 3.73 c 9.61,-26.383 18.78,-51.402 27.47,-75.063 8.69,-23.679 17,-46.476 24.91,-68.398 7.92,-21.93 15.6,-43.141 23.05,-63.621 7.44,-20.5 14.9,-40.758 22.35,-60.7774 3.4,-9.8516 6.59,-18.0313 9.54,-24.543 2.95,-6.5078 6.29,-13.8984 10.02,-22.1602 0.61,-1.2695 2.01,-3.5 4.19,-6.6796 2.15,-3.168 5.04,-6.4297 8.61,-9.7579 3.56,-3.3398 7.98,-6.2812 13.27,-8.8203 5.26,-2.55076 11.48,-3.96872 18.61,-4.28904 V 2.37891 h -135.94" style="fill:#66a4c1;fill-opacity:1;fill-rule:nonzero;stroke:none" id="path42"></path><path d="m 3478.22,331.719 c -6.98,-4.457 -12.34,-11.289 -16.06,-20.5 -2.18,-4.77 -3.59,-13.578 -4.19,-26.449 -0.64,-12.872 -1.25,-26.622 -1.88,-41.231 -0.61,-13.66 -1.16,-29.777 -1.62,-48.379 -0.46,-18.578 -0.7,-38.519 -0.7,-59.808 0,-8.903 0,-19.063 0,-30.5 0,-11.1215 0.08,-22.4809 0.24,-34.0825 0.15,-11.5976 0.23,-23.1211 0.23,-34.5507 0,-11.4375 0,-21.7696 0,-30.98052 0,-1.27734 -0.39,-2.30859 -1.16,-3.08984 -0.77,-0.78906 -1.95,-1.187502 -3.5,-1.187502 -2.49,0 -5.27,1.578122 -8.37,4.757812 -26.39,31.13285 -50.45,59.73045 -72.18,85.78125 -21.72,26.059 -42.45,50.922 -62.14,74.59 -19.73,23.672 -39.05,46.789 -57.98,69.351 -18.93,22.559 -38.96,45.918 -60.05,70.071 V 104.371 c 0,-16.1991 0.38,-30.8202 1.16,-43.8397 0.77,-13.0313 2.71,-22.7227 5.82,-29.0821 3.4,-7.3086 8.76,-12.789 16.06,-16.4375 7.29,-3.6523 17.3,-6.28123 30.02,-7.86326 V 2.37891 h -114.53 v 4.76953 c 7.45,0.95312 14.91,2.92966 22.35,5.95316 7.45,3.0195 13.35,8.0195 17.69,15.0078 4.35,6.6797 7.14,16.5312 8.38,29.5508 1.24,13.0312 2.17,28.6093 2.79,46.7108 0.63,13.668 1.1,29.789 1.4,48.379 0.3,18.59 0.47,38.531 0.47,59.82 0,9.211 0,16.828 0,22.871 0,6.028 0,11.911 0,17.629 0,5.731 0,11.602 0,17.641 0,6.348 -0.17,14.129 -0.47,23.348 -0.93,9.222 -3.1,16.761 -6.51,22.64 -3.42,5.879 -7.45,10.492 -12.11,13.832 -4.66,3.328 -9.7,5.707 -15.13,7.141 -5.44,1.43 -10.64,2.457 -15.6,3.098 v 4.769 h 94.52 L 3445.86,81.5 v 162.039 c 0,12.711 -0.16,24.859 -0.47,36.473 -0.31,11.59 -1.7,20.718 -4.18,27.398 -3.11,8.891 -8.62,16.121 -16.53,21.68 -7.92,5.558 -19.33,9.449 -34.23,11.68 v 4.769 h 115.47 v -4.769 c -11.49,-1.59 -20.71,-4.61 -27.7,-9.051" style="fill:#66a4c1;fill-opacity:1;fill-rule:nonzero;stroke:none" id="path44"></path><path d="m 3665.16,291.199 c -1.86,-4.129 -4.59,-10.648 -8.15,-19.539 -3.57,-8.898 -8,-19.699 -13.27,-32.398 -5.28,-12.723 -11.1,-27.09 -17.46,-43.141 -6.37,-16.043 -13.26,-33.449 -20.71,-52.191 h 115.92 c -5.28,14.3 -10.63,28.601 -16.06,42.89 -5.43,14.301 -10.7,28.039 -15.83,41.231 -5.12,13.187 -9.78,25.258 -13.96,36.23 -4.19,10.949 -7.68,19.93 -10.48,26.918 z M 3726.15,2.37891 v 4.76953 c 0.93,0 3.18,0.3125 6.75,0.95312 3.57,0.62891 7.3,1.73828 11.17,3.32814 3.89,1.6016 7.3,3.8203 10.25,6.6797 2.95,2.8594 4.42,6.5117 4.42,10.9609 0,2.8594 -0.86,7.5508 -2.56,14.0586 -1.71,6.5117 -4.12,14.4609 -7.21,23.832 -3.11,9.3672 -6.68,19.7774 -10.72,31.2188 -4.03,11.4413 -8.37,23.3513 -13.02,35.7423 h -123.85 c -4.66,-12.082 -9.17,-23.59 -13.52,-34.5509 -4.34,-10.9609 -8.68,-22.0117 -13.03,-33.1211 -6.52,-17.1602 -9.77,-29.2383 -9.77,-36.2187 0,-4.1407 1.23,-7.5625 3.72,-10.2618 2.48,-2.6914 5.66,-4.9179 9.55,-6.6679 3.87,-1.7422 8.06,-3.0235 12.56,-3.80082 4.5,-0.8125 8.77,-1.51953 12.81,-2.15234 V 2.37891 h -99.18 v 5.25 c 8.09,0.9414 14.98,3.17189 20.72,6.67189 5.75,3.4883 9.09,5.8711 10.01,7.1406 2.18,2.2188 5.75,7.457 10.72,15.7383 4.96,8.25 11,20.4805 18.15,36.6992 6.52,14.9297 13.82,31.9301 21.89,50.9921 8.06,19.059 16.36,38.668 24.91,58.859 8.53,20.168 16.99,40.508 25.37,61 8.38,20.5 16.3,39.629 23.75,57.442 l -4.66,10.476 c 5.59,2.543 10.63,5.551 15.13,9.063 4.5,3.488 8.46,7.148 11.88,10.949 3.4,3.82 6.27,7.469 8.61,10.969 2.32,3.5 4.11,6.351 5.36,8.582 h 3.72 c 9.62,-26.383 18.77,-51.402 27.47,-75.063 8.68,-23.679 16.99,-46.476 24.91,-68.398 7.91,-21.93 15.6,-43.141 23.04,-63.621 7.45,-20.5 14.9,-40.758 22.35,-60.7774 3.42,-9.8516 6.59,-18.0313 9.54,-24.543 2.95,-6.5078 6.29,-13.8984 10.02,-22.1602 0.62,-1.2695 2.01,-3.5 4.19,-6.6796 2.16,-3.168 5.03,-6.4297 8.62,-9.7579 3.56,-3.3398 7.97,-6.2812 13.27,-8.8203 5.27,-2.55076 11.47,-3.96872 18.62,-4.28904 V 2.37891 h -135.96" style="fill:#66a4c1;fill-opacity:1;fill-rule:nonzero;stroke:none" id="path46"></path><path d="m 4198.26,157.039 c -6.21,-2.07 -10.7,-5.32 -13.5,-9.769 -2.17,-3.5 -3.41,-8.899 -3.72,-16.211 -0.32,-7.309 -0.47,-14.618 -0.47,-21.918 V 39.5586 c -2.17,-1.9102 -7.52,-5.0898 -16.07,-9.5273 -8.53,-4.461 -18.93,-8.9922 -31.19,-13.5899 C 4121.06,11.8281 4107.47,7.94141 4092.58,4.76172 4077.68,1.58984 4062.77,0 4047.88,0 c -29.5,0 -55.88,3.89063 -79.16,11.6797 -23.27,7.7812 -42.91,19.2187 -58.9,34.3086 -15.98,15.0937 -28.25,33.5234 -36.77,55.2927 -8.55,21.758 -12.81,46.149 -12.81,73.149 0,7.941 0.77,17.082 2.33,27.41 1.55,10.332 4.26,21.211 8.15,32.648 3.87,11.442 9.31,23.032 16.29,34.793 6.98,11.75 15.75,22.879 26.31,33.36 14.89,14.937 33.2,26.929 54.94,35.98 21.72,9.059 48.11,13.59 79.15,13.59 18.63,0 35.07,-1.66 49.35,-5 14.28,-3.34 26.32,-7 36.08,-10.973 9.78,-3.976 17.31,-7.617 22.58,-10.957 5.28,-3.34 8.22,-5.011 8.86,-5.011 0.61,0 2.32,1.921 5.12,5.718 2.79,3.821 6.21,8.422 10.24,13.821 h 4.2 V 235.922 h -5.6 c -3.42,14.289 -8.53,27.797 -15.37,40.5 -6.82,12.707 -14.12,23.199 -21.87,31.469 -9.94,10.789 -22.67,19.539 -38.18,26.211 -15.53,6.668 -32.92,10.007 -52.16,10.007 -20.47,0 -38.95,-4.699 -55.4,-14.058 -16.45,-9.379 -30.42,-21.93 -41.9,-37.66 -11.49,-15.719 -20.33,-33.84 -26.53,-54.332 -6.22,-20.489 -9.33,-42.02 -9.33,-64.579 0,-24.781 2.95,-47.421 8.86,-67.921 5.89,-20.4809 14.43,-38.0473 25.6,-52.6606 11.18,-14.6171 24.84,-25.9765 40.98,-34.0703 16.13,-8.1093 34.6,-12.15622 55.4,-12.15622 14.9,0 28.79,2.6289 41.67,7.86722 12.88,5.2304 23.05,13.7304 30.5,25.5 2.48,4.1211 4.33,11.4297 5.58,21.9218 1.23,10.4805 1.87,21.2774 1.87,32.3985 0,11.1286 -0.55,21.1406 -1.63,30.0316 -1.1,8.89 -4.27,16.199 -9.54,21.929 -7.15,8.258 -19.72,13.18 -37.72,14.77 v 4.769 h 136.42 v -4.769 c -5.27,-0.641 -11.02,-1.988 -17.23,-4.051" style="fill:#66a4c1;fill-opacity:1;fill-rule:nonzero;stroke:none" id="path48"></path><path d="M 4535.35,2.37891 H 4250.4 v 4.76953 c 7.76,1.27344 14.97,3.33986 21.65,6.19136 6.68,2.8594 12.19,6.8321 16.53,11.9219 1.55,1.9102 2.8,4.6797 3.73,8.3399 0.93,3.6367 1.78,7.8593 2.56,12.6289 0.78,4.7578 1.32,9.7578 1.63,15.0078 0.31,5.2422 0.46,10.4101 0.46,15.4922 0,4.4492 0.08,10.4883 0.24,18.1093 0.15,7.6292 0.3,15.9692 0.47,25.0192 0.15,9.063 0.22,18.352 0.22,27.879 0,9.852 0,19.063 0,27.653 v 92.937 c 0,5.711 -0.07,11.594 -0.22,17.641 -0.17,6.019 -0.47,11.742 -0.94,17.152 -0.47,5.391 -1.24,10.25 -2.33,14.527 -1.08,4.293 -2.55,7.403 -4.42,9.301 -4.66,5.082 -9.63,8.34 -14.89,9.77 -5.29,1.429 -12.11,2.781 -20.5,4.051 v 4.769 h 257.01 l 31.66,-78.648 -4.65,-2.379 c -25.14,32.09 -48.74,53.687 -70.77,64.816 -5.28,2.543 -15.07,4.774 -29.33,6.672 -14.28,1.91 -31.66,2.871 -52.15,2.871 -6.52,0 -13.27,-0.25 -20.26,-0.723 -6.98,-0.476 -12.03,-1.027 -15.12,-1.668 -0.64,-5.089 -1.16,-15.57 -1.63,-31.449 -0.47,-15.902 -0.7,-34.32 -0.7,-55.301 0,-12.07 0,-22.23 0,-30.492 0,-8.269 0.06,-15.008 0.23,-20.258 0.15,-5.242 0.22,-9.289 0.22,-12.16 0,-2.539 0,-4.281 0,-5.238 1.56,0 4.67,0 9.33,0 4.66,0 10.01,0.156 16.05,0.477 6.06,0.312 12.11,0.711 18.17,1.191 6.04,0.48 11.09,1.191 15.12,2.148 9.32,2.223 17.07,5.243 23.29,9.051 6.21,3.821 11.25,8.422 15.12,13.821 3.89,5.402 6.99,11.679 9.32,18.832 2.32,7.148 4.42,15.168 6.29,24.07 h 5.58 V 101.031 h -5.58 c -2.49,10.168 -6.29,20.66 -11.42,31.469 -5.11,10.789 -10.47,18.891 -16.05,24.301 -4.97,4.449 -10.94,8.097 -17.92,10.961 -7,2.859 -15.14,4.597 -24.46,5.25 -4.65,0.308 -8.54,0.539 -11.64,0.707 -3.1,0.16 -6.21,0.242 -9.31,0.242 -2.8,0 -5.89,0 -9.31,0 -3.1,0 -7.15,0 -12.11,0 -0.61,-4.449 -0.92,-10.961 -0.92,-19.539 0,-8.582 0,-17.481 0,-26.692 0,-4.14 0,-8.902 0,-14.3 0,-5.399 0,-10.801 0,-16.2112 0,-5.0782 0.06,-9.9297 0.23,-14.5274 0.15,-4.6211 0.22,-8.5 0.22,-11.6797 0.32,-10.1719 0.86,-19.7812 1.64,-28.832 0.77,-9.0586 2.56,-15.8086 5.36,-20.2578 2.79,-4.4531 9.47,-7.6211 20.01,-9.5313 10.56,-1.9023 22.04,-2.85935 34.47,-2.85935 5.27,0 12.02,0.16016 20.25,0.48045 8.21,0.3086 16.83,1.0977 25.83,2.3789 9.93,1.2696 19.09,3.7305 27.48,7.3789 8.37,3.6602 16.45,8.8203 24.21,15.4922 7.74,6.6797 15.28,14.8594 22.58,24.5469 7.29,9.6914 14.81,21.3711 22.59,35.0312 l 5.1,-1.4179 -23.27,-91.04299" style="fill:#66a4c1;fill-opacity:1;fill-rule:nonzero;stroke:none" id="path50"></path><path d="m 4849.16,2.37891 v 5.25 c 13.34,0.63281 24.51,3.48049 33.53,8.57029 9,5.0821 15.04,10.9727 18.16,17.6406 1.86,4.129 3.25,9.2891 4.19,15.4805 0.93,6.211 1.54,12.4805 1.86,18.8281 0.62,20.9727 0.93,40.9926 0.93,60.0506 0,19.071 0,38.77 0,59.102 v 134.89 c -10.24,-23.519 -19.64,-45.132 -28.17,-64.832 -8.54,-19.699 -16.99,-38.918 -25.38,-57.66 -8.37,-18.75 -16.84,-37.898 -25.37,-57.437 -8.54,-19.543 -17.92,-41.063 -28.17,-64.5823 -1.55,-3.1797 -3.73,-8.1797 -6.51,-15.0078 -2.79,-6.8321 -5.6,-13.8203 -8.39,-20.9727 -2.79,-7.1484 -5.44,-13.6601 -7.92,-19.539 -2.48,-5.8789 -4.03,-9.7696 -4.65,-11.6719 h -2.79 c -9.94,23.5 -19.8,46.8633 -29.57,70.0625 -9.77,23.1872 -19.32,45.5082 -28.63,66.9612 -9.31,21.437 -18,41.539 -26.08,60.289 -8.07,18.738 -15.36,35.418 -21.88,50.039 -6.52,14.609 -11.87,26.851 -16.07,36.699 -4.19,9.84 -7.06,16.512 -8.6,20.02 0,-20.981 -0.09,-39.481 -0.24,-55.528 -0.16,-16.043 -0.32,-31.929 -0.46,-47.652 -0.16,-15.738 -0.24,-32.34 -0.24,-49.809 0,-17.48 0,-37.82 0,-61.011 0,-14.9379 0.47,-27.8793 1.4,-38.8402 0.94,-10.9571 3.26,-20.1797 6.98,-27.6485 3.73,-7.4609 9.39,-13.3398 17,-17.6289 7.6,-4.293 18.08,-7.39062 31.43,-9.29296 V 2.37891 h -121.53 v 4.76953 c 10.87,2.21094 19.71,5.48046 26.55,9.77346 6.81,4.289 12.25,10.25 16.29,17.8672 4.04,7.6328 6.98,17.0703 8.84,28.3593 1.87,11.2735 2.95,25.0235 3.27,41.2226 0.61,13.668 1.08,29.789 1.39,48.379 0.31,18.59 0.46,38.531 0.46,59.82 0,9.211 0,16.989 0,23.352 0,6.348 0,12.387 0,18.109 0,6.028 0,12.231 0,18.59 0,6.348 -0.15,14.129 -0.46,23.348 -0.31,8.89 -2.18,16.121 -5.58,21.679 -3.43,5.563 -7.45,9.942 -12.11,13.114 -4.65,3.168 -9.62,5.476 -14.9,6.91 -5.28,1.43 -9.78,2.457 -13.5,3.098 v 4.769 h 99.17 L 4794.69,86.2695 c 13.66,30.1715 27,60.1995 40.05,90.0825 13.02,29.847 24.74,56.859 35.14,81.007 10.39,24.153 18.93,44.25 25.61,60.289 6.67,16.051 10.48,25.34 11.41,27.891 h 99.17 v -4.769 c -12.73,-0.321 -22.43,-3.032 -29.11,-8.11 -6.67,-5.07 -11.24,-11.121 -13.72,-18.101 -1.87,-5.411 -3.11,-13.829 -3.73,-25.258 -0.63,-11.442 -1.09,-22.719 -1.39,-33.84 -0.32,-15.262 -0.47,-30.031 -0.47,-44.332 0,-14.301 0,-28.758 0,-43.367 0,-17.16 0,-34.313 0,-51.473 0,-16.8476 0.15,-34.6288 0.47,-53.3788 0,-6.0391 0.38,-12.1485 1.16,-18.3516 0.77,-6.1875 2.09,-11.0469 3.96,-14.5273 0.31,-0.6524 1.47,-2.1524 3.49,-4.5313 2.01,-2.3906 4.88,-4.9414 8.6,-7.6289 3.73,-2.7109 8.39,-5.0898 13.98,-7.1523 5.58,-2.07036 12.1,-3.25786 19.55,-3.57036 V 2.37891 h -159.7" style="fill:#66a4c1;fill-opacity:1;fill-rule:nonzero;stroke:none" id="path52"></path><path d="m 5327.79,2.37891 h -284.94 v 4.76953 c 7.76,1.27344 14.97,3.33986 21.64,6.19136 6.68,2.8594 12.19,6.8321 16.54,11.9219 1.55,1.9102 2.8,4.6797 3.72,8.3399 0.93,3.6367 1.78,7.8593 2.57,12.6289 0.77,4.7578 1.31,9.7578 1.63,15.0078 0.31,5.2422 0.45,10.4101 0.45,15.4922 0,4.4492 0.08,10.4883 0.25,18.1093 0.15,7.6292 0.3,15.9692 0.46,25.0192 0.15,9.063 0.23,18.352 0.23,27.879 0,9.852 0,19.063 0,27.653 v 92.937 c 0,5.711 -0.08,11.594 -0.23,17.641 -0.16,6.019 -0.46,11.742 -0.93,17.152 -0.47,5.391 -1.24,10.25 -2.33,14.527 -1.09,4.293 -2.55,7.403 -4.43,9.301 -4.66,5.082 -9.63,8.34 -14.89,9.77 -5.28,1.429 -12.11,2.781 -20.49,4.051 v 4.769 h 257 l 31.67,-78.648 -4.65,-2.379 c -25.15,32.09 -48.74,53.687 -70.78,64.816 -5.28,2.543 -15.05,4.774 -29.33,6.672 -14.28,1.91 -31.66,2.871 -52.14,2.871 -6.52,0 -13.27,-0.25 -20.25,-0.723 -6.99,-0.476 -12.04,-1.027 -15.14,-1.668 -0.63,-5.089 -1.16,-15.57 -1.63,-31.449 -0.47,-15.902 -0.7,-34.32 -0.7,-55.301 0,-12.07 0,-22.23 0,-30.492 0,-8.269 0.07,-15.008 0.23,-20.258 0.16,-5.242 0.23,-9.289 0.23,-12.16 0,-2.539 0,-4.281 0,-5.238 1.56,0 4.67,0 9.32,0 4.66,0 10.01,0.156 16.05,0.477 6.07,0.312 12.11,0.711 18.17,1.191 6.05,0.48 11.1,1.191 15.14,2.148 9.3,2.223 17.07,5.243 23.27,9.051 6.21,3.821 11.25,8.422 15.13,13.821 3.88,5.402 6.99,11.679 9.31,18.832 2.33,7.148 4.43,15.168 6.29,24.07 h 5.59 V 101.031 h -5.59 c -2.49,10.168 -6.29,20.66 -11.41,31.469 -5.11,10.789 -10.48,18.891 -16.05,24.301 -4.97,4.449 -10.95,8.097 -17.93,10.961 -6.98,2.859 -15.13,4.597 -24.45,5.25 -4.66,0.308 -8.54,0.539 -11.65,0.707 -3.09,0.16 -6.21,0.242 -9.3,0.242 -2.79,0 -5.9,0 -9.32,0 -3.09,0 -7.14,0 -12.1,0 -0.62,-4.449 -0.93,-10.961 -0.93,-19.539 0,-8.582 0,-17.481 0,-26.692 0,-4.14 0,-8.902 0,-14.3 0,-5.399 0,-10.801 0,-16.2112 0,-5.0782 0.07,-9.9297 0.23,-14.5274 0.16,-4.6211 0.23,-8.5 0.23,-11.6797 0.32,-10.1719 0.86,-19.7812 1.63,-28.832 0.78,-9.0586 2.57,-15.8086 5.37,-20.2578 2.78,-4.4531 9.46,-7.6211 20.02,-9.5313 10.54,-1.9023 22.03,-2.85935 34.45,-2.85935 5.27,0 12.02,0.16016 20.25,0.48045 8.21,0.3086 16.83,1.0977 25.83,2.3789 9.93,1.2696 19.09,3.7305 27.48,7.3789 8.38,3.6602 16.45,8.8203 24.21,15.4922 7.76,6.6797 15.28,14.8594 22.59,24.5469 7.28,9.6914 14.81,21.3711 22.58,35.0312 l 5.11,-1.4179 -23.28,-91.04299" style="fill:#66a4c1;fill-opacity:1;fill-rule:nonzero;stroke:none" id="path54"></path><path d="m 5721,331.719 c -6.99,-4.457 -12.35,-11.289 -16.07,-20.5 -2.18,-4.77 -3.57,-13.578 -4.19,-26.449 -0.62,-12.872 -1.25,-26.622 -1.86,-41.231 -0.63,-13.66 -1.17,-29.777 -1.62,-48.379 -0.47,-18.578 -0.72,-38.519 -0.72,-59.808 0,-8.903 0,-19.063 0,-30.5 0,-11.1215 0.08,-22.4809 0.25,-34.0825 0.14,-11.5976 0.22,-23.1211 0.22,-34.5507 0,-11.4375 0,-21.7696 0,-30.98052 0,-1.27734 -0.39,-2.30859 -1.16,-3.08984 -0.77,-0.78906 -1.93,-1.187502 -3.5,-1.187502 -2.49,0 -5.27,1.578122 -8.37,4.757812 -26.38,31.13285 -50.44,59.73045 -72.17,85.78125 -21.73,26.059 -42.45,50.922 -62.15,74.59 -19.72,23.672 -39.04,46.789 -57.98,69.351 -18.93,22.559 -38.95,45.918 -60.05,70.071 V 104.371 c 0,-16.1991 0.38,-30.8202 1.16,-43.8397 0.78,-13.0313 2.71,-22.7227 5.82,-29.0821 3.4,-7.3086 8.76,-12.789 16.07,-16.4375 7.28,-3.6523 17.29,-6.28123 30.02,-7.86326 V 2.37891 h -114.53 v 4.76953 c 7.44,0.95312 14.89,2.92966 22.34,5.95316 7.45,3.0195 13.35,8.0195 17.7,15.0078 4.34,6.6797 7.13,16.5312 8.37,29.5508 1.24,13.0312 2.17,28.6093 2.8,46.7108 0.62,13.668 1.09,29.789 1.39,48.379 0.31,18.59 0.47,38.531 0.47,59.82 0,9.211 0,16.828 0,22.871 0,6.028 0,11.911 0,17.629 0,5.731 0,11.602 0,17.641 0,6.348 -0.16,14.129 -0.47,23.348 -0.92,9.222 -3.09,16.761 -6.51,22.64 -3.42,5.879 -7.45,10.492 -12.11,13.832 -4.66,3.328 -9.7,5.707 -15.13,7.141 -5.44,1.43 -10.63,2.457 -15.59,3.098 v 4.769 h 94.51 L 5688.63,81.5 v 162.039 c 0,12.711 -0.15,24.859 -0.46,36.473 -0.32,11.59 -1.7,20.718 -4.19,27.398 -3.11,8.891 -8.62,16.121 -16.53,21.68 -7.92,5.558 -19.32,9.449 -34.22,11.68 v 4.769 h 115.46 v -4.769 c -11.48,-1.59 -20.71,-4.61 -27.69,-9.051" style="fill:#66a4c1;fill-opacity:1;fill-rule:nonzero;stroke:none" id="path56"></path><path d="m 6107.2,255.941 c -2.49,5.719 -5.44,11.68 -8.85,17.868 -3.42,6.203 -6.91,11.992 -10.47,17.39 -3.58,5.403 -7.07,10.41 -10.48,15.02 -3.42,4.601 -6.36,8.019 -8.84,10.242 -6.53,6.359 -13.59,10.559 -21.19,12.629 -7.61,2.07 -17.31,3.262 -29.11,3.57 -5.89,0 -11.01,0.078 -15.35,0.25 -4.35,0.149 -8.69,0.231 -13.05,0.231 -4.03,0 -8.53,0 -13.49,0 -4.66,0 -10.4,0 -17.24,0 0,-7.942 -0.07,-18.75 -0.22,-32.411 -0.17,-13.66 -0.24,-27.96 -0.24,-42.89 0,-14.942 0,-29.719 0,-44.328 0,-14.293 0,-26.371 0,-36.223 V 71.4883 c 0,-9.2188 0.24,-18.0274 0.71,-26.4492 0.45,-8.418 1.92,-14.3907 4.41,-17.8672 4.66,-7 11.25,-11.7617 19.78,-14.3008 8.55,-2.5508 16.23,-4.44922 23.05,-5.72266 V 2.37891 h -151.31 v 4.76953 c 8.07,0.95312 15.83,2.54297 23.27,4.76176 7.46,2.2187 14.75,7.4609 21.89,15.7304 1.55,1.5899 2.71,4.1992 3.5,7.8711 0.77,3.6485 1.39,7.7774 1.86,12.3867 0.46,4.6016 0.77,9.6133 0.93,15.0118 0.15,5.3984 0.23,10.6406 0.23,15.7304 0,4.4375 0.08,10.3203 0.24,17.6289 0.15,7.3125 0.3,15.4105 0.46,24.3005 0.15,8.899 0.23,18.121 0.23,27.649 0,9.531 0,18.582 0,27.172 v 157.75 c -6.52,0 -12.27,0 -17.23,0 -4.65,0 -9.16,0 -13.49,0 -4.05,0 -8.31,-0.082 -12.8,-0.231 -4.51,-0.172 -9.72,-0.25 -15.6,-0.25 -11.81,-0.308 -21.5,-1.738 -29.11,-4.281 -7.61,-2.551 -14.66,-6.988 -21.18,-13.34 -2.49,-2.23 -5.36,-5.57 -8.62,-10.008 -3.26,-4.461 -6.68,-9.301 -10.24,-14.543 -3.57,-5.25 -6.98,-10.886 -10.25,-16.918 -3.25,-6.039 -5.82,-11.91 -7.68,-17.629 l -4.18,1.418 13.96,90.563 c 7.13,-1.594 13.73,-2.863 19.79,-3.813 6.05,-0.961 14.82,-1.589 26.31,-1.91 11.8,-0.32 22.34,-0.558 31.66,-0.719 9.31,-0.16 18.31,-0.23 27,-0.23 8.69,0 17.54,0 26.54,0 9.31,0 19.71,0 31.19,0 11.49,0 21.73,0 30.74,0 9.3,0 18.31,0.07 27.01,0.23 8.68,0.161 17.68,0.321 26.99,0.481 9.32,0.16 19.86,0.238 31.67,0.238 10.25,0.321 18.69,1.192 25.37,2.621 6.67,1.43 13.58,3.25 20.71,5.481 l 14.91,-92.942 -4.19,-1.418" style="fill:#66a4c1;fill-opacity:1;fill-rule:nonzero;stroke:none" id="path58"></path><path d="m 6011.62,1679.69 c -262.08,46.12 -474.38,251.68 -474.38,251.68 0,0 -212.32,-205.56 -474.39,-251.68 -28.3,-649.96 474.39,-846.71 474.39,-846.71 0,0 502.68,196.75 474.38,846.71" style="fill:#737e8c;fill-opacity:1;fill-rule:nonzero;stroke:none" id="path60"></path><path d="M 5110.05,1645.55 C 5098,1347.73 5213.28,1159.27 5312.33,1053.48 5413.16,945.801 5517.77,899.781 5531.58,894 c 13.83,5.789 118.69,51.969 219.52,159.77 98.93,105.76 214.07,294.16 202.03,591.78 -216.5,39.42 -396.66,200.5 -421.55,223.56 -24.87,-23.06 -205.04,-184.14 -421.53,-223.56 z m 421.53,-760.581 -1.52,0.59 c -1.13,0.453 -114.89,45.832 -223.85,162.191 -100.53,107.36 -217.58,298.86 -204.4,601.52 l 0.14,3.36 3.32,0.58 c 231.19,40.68 421.5,222.84 423.4,224.67 l 2.91,2.82 2.92,-2.82 c 1.91,-1.83 192.3,-183.99 423.4,-224.67 l 3.32,-0.58 0.15,-3.36 C 5974.54,1346.61 5857.48,1155.11 5756.96,1047.75 5648.01,931.391 5534.25,886.012 5533.12,885.559 l -1.54,-0.59" style="fill:#ffffff;fill-opacity:1;fill-rule:nonzero;stroke:none" id="path62"></path><path d="m 5480.79,1482.54 c 5.98,-2.78 15.88,11.55 22.01,7.58 -0.07,-0.05 -0.14,-0.11 -0.22,-0.16 3.7,0.44 5.42,-8.17 8.9,-9.8 5.97,-2.78 15.87,11.55 22.01,7.58 -8.42,-6.27 -13.74,-8.16 -19.51,-16.47 -5.61,3.85 -7.75,12.85 -12.46,17.91 -7.68,-5.54 -12.75,-7.65 -18.23,-15.53 -5.7,3.92 -7.81,13.19 -12.7,18.19 4.65,2.93 6.33,-7.49 10.2,-9.3 z m 30,85.59 c 5.03,8.11 -6.08,37.18 1.09,30.81 15.57,-13.84 -4.38,-60.36 -29.17,-50.87 0.22,2.12 15.36,-0.5 28.08,20.06 z m 7.97,62.8 c -3.6,-9.52 -19.79,-14.41 -20.69,-1.54 6.98,2.02 13.41,1.6 20.69,1.54 z m 11.9,-89.46 c 1.48,1.39 2.75,12.43 4.22,13.83 0.25,0.88 -1.65,8.1 -1.71,8.75 -0.55,6.66 0.33,7.67 2.49,13.45 -0.79,3.86 -0.52,14.26 -0.29,18.2 4.62,-5.73 6.2,-15.24 12.88,-18.14 -4.22,-2.53 -4.73,2.03 -9.44,2.68 0.14,-6.94 -0.34,-18.46 -3.93,-24.94 0.54,-3.65 1.19,-21.82 -1.39,-24.45 -7.03,8.86 -11,-3.54 -11.09,-8.46 -7.35,7.82 1.87,6.99 -3.02,13.72 5.97,10.67 4.24,3.62 11.28,5.36 z m 24.62,9.26 c 1.53,1.35 3.05,2.72 4.57,4.07 -1.1,-13.91 -2.42,-20.67 11.62,-30.66 -4.1,-1.29 -10.71,-3.87 -14.64,-2.19 -5.41,-9.39 8.43,-25 11.29,-34.46 -5.61,0.35 -11.45,6.12 -17.24,4.21 -5.7,-1.9 -15.97,-14.76 -17.81,-20.43 -4.25,5.85 8.45,16.3 -0.09,22.23 2.87,1.57 5.8,1.57 8.78,-0.02 3.57,2.15 3.99,6.49 8.19,7.87 -0.53,8.68 -2.4,17.1 -2.96,25.81 15.17,-1.95 2.96,13.91 8.29,23.57 z m 1.61,78 c 3.77,1.87 7.48,3.82 11.12,5.86 0.6,-4.91 -0.02,-9.72 -1.89,-14.41 -7.88,0.4 -10.96,3.25 -9.23,8.55 z m -139.11,-163.01 c -0.52,-2.86 -5.45,-9.79 -6.69,-13.02 -2.84,-7.43 -5.13,-16.2 -6.97,-23.98 -3.01,-12.79 9.09,-10.88 14.53,-3.7 4.5,-5.35 10.26,4.69 15.59,4.94 -5.06,-17.1 11.97,-2.47 20.25,-1.7 8.21,3.03 15.39,10.04 24.41,10.46 -3.46,-15.72 25.99,-38.99 25.99,-38.99 0,0 1,8.72 2.91,16.64 4.05,9.04 0.09,8.54 6,19.89 7.51,-5.11 22.27,-34.04 22.27,-34.04 0,0 7.89,11.73 11.02,16.11 4.04,5.92 8.05,12.42 12.86,17.77 5.53,-5.84 22.99,-30.64 22.99,-30.64 0,0 19.23,24.15 21.75,35.46 5.47,3.39 12.22,-4.12 15.99,-6.28 7.58,-4.35 20.44,-4.38 27.75,0.02 -12.88,8.45 -17.41,22.85 -25.12,29.99 7.57,2.67 28.19,-6.33 28.19,-6.33 0,0 -32.54,35.75 -42.16,39.09 7.27,4.7 32.68,-3.69 32.68,-3.69 0,0 -7.18,18.15 -13.12,24.87 -8.41,5.59 -19.49,4.74 -23,16.05 -2.56,8.22 26.13,-3.49 32.88,-3.93 -4.74,13.13 -21.81,22.43 -26.78,32.05 -0.62,5.82 -10.26,7.68 -10.55,12.92 4.99,1.01 28.11,-6.91 28.11,-6.91 0,0 -15.68,15.84 -18.74,20.38 -3.92,5.81 -8.77,14.24 -9.43,22.09 -0.36,6.38 -1.74,24.12 -9.07,24.22 -6.75,0.1 -5.3,-10.12 -11.17,-12.26 0.21,6.41 5.81,6.92 3.7,14.97 -0.83,3.13 -4.76,11.81 -7.67,13.61 -14.3,8.88 -11.52,-9.14 -19.17,-13.37 -0.95,9.09 13.73,16.62 0.43,21.79 -5.96,1.02 -8.01,-5.34 -13.68,-1.08 -7.02,5.26 -23.86,1 -31.21,-0.07 -15.67,-4.03 -26.69,-9.57 -38.91,-19.18 -10.14,-7.97 -25.5,2.39 -38.26,-7.47 -5.39,-4.17 -5.08,-17.26 8.43,-15.7 6.14,0.7 -13.51,-1.56 -0.71,-12.18 10.68,-8.85 14.65,-14.61 30.03,-9.16 12.01,4.25 25.35,-0.59 21.67,-15.55 -2.33,-11.82 -28.56,1.82 -33.07,1.21 -3.74,0.57 -13.78,-23.11 -18.86,-25.98 -6.07,-3.43 -7.99,-10.49 -1.1,-14.49 6.96,-4.02 10.35,1.88 16.28,4.1 -4,-10.95 -38.66,-10.61 -39.64,-10.83 -3.58,-0.82 -11.06,-2 -13.38,-5.37 -3.67,-5.31 -5.17,0.32 -10.47,-15.5 11.08,-0.73 27.74,-6.4 35.74,-13.2 -0.87,-5.65 -8.07,-25.49 -13.52,-34.03" style="fill:#ffffff;fill-opacity:1;fill-rule:nonzero;stroke:none" id="path64"></path><path d="m 5400.84,1479.61 c -2.62,-3.33 -15.72,4.34 -22.26,1.71 -4.29,6.73 -8.81,15.73 -18.79,12.46 -1.45,-0.48 -14.33,20.1 -13.96,21.58 12.48,-8.65 42.57,-27.36 55.01,-35.75 z m -118.18,60.93 c 2.07,-1.23 4.21,-1.2 6.39,0.07 -0.13,-5.54 -9.04,-5.33 -3.92,-12.53 -2.61,-4.24 -3.13,-25.69 -3.13,-25.69 0,0 5.48,8.71 8.81,10.25 7.4,3.42 4.49,8.7 -0.89,14.66 6.35,-0.92 6.73,-3.95 13.93,-3.48 -0.8,4.04 0.25,6.43 3.15,7.13 2.67,-6.82 2.72,-14.08 3.97,-21.21 1.42,-8.12 5.04,-8.34 7.18,-16.51 6.19,-5.14 7.03,14.22 8.77,14.22 0.27,-5.22 4.38,-18.27 10.92,-19.67 1.34,5.11 2.9,9.02 4.35,14.28 3.67,-4.2 4.04,-24.12 1.74,-29.36 -5.43,-7.74 6.14,-16.38 6.14,-16.38 0,0 8.85,17.89 13.54,19.89 0.63,-8.97 6.83,-18.12 6.11,-26.95 4.72,0.16 18.09,6.56 17.29,12.93 6.92,-3.64 -2.39,-12.09 -3.29,-17.08 1.49,-8.04 1.25,-25.44 1.25,-25.44 0,0 16.94,21.59 18.68,29.75 0.86,4 2.1,6.32 3.5,10.14 -0.53,3.12 -0.75,6.24 -0.69,9.4 2.87,-0.97 5.76,-1.83 8.69,-2.57 0.8,10.33 0.89,32.61 -0.88,37.42 -2,5.18 -18.74,5.42 -20.43,8.65 -14.24,-0.52 1.63,12.61 5.62,16.92 8.22,0.13 7.72,4.03 5.94,10.98 -5.49,7.03 -19.42,4.62 -27.59,6.95 -8.31,2.37 -17.52,2.14 -25.57,5.44 -15.6,6.38 -26.68,13.24 -26.7,32.32 -0.01,11.74 -10.59,13.12 -19.89,13.18 -10.04,-0.04 -9.65,-6 -8.41,-13.56 -5.11,3.87 -7.63,7.21 -15,5.78 -4.53,-4.33 0.39,-10.09 -3.57,-15.1 -10.95,-13.85 4.2,-7.76 11.63,-10.57 -6.22,-3.31 -20.87,0.84 -20.07,-7.87 0.79,-8.41 0.18,-9.83 -5.59,-15.86 -0.21,-6.18 6.41,-11.92 10.25,-5.08 3.38,0.15 5.97,1.67 7.77,4.55" style="fill:#ffffff;fill-opacity:1;fill-rule:nonzero;stroke:none" id="path66"></path><path d="m 5325.71,1602.9 c -1.17,10.57 -7.27,17.19 -14.87,24.33 -4.05,3.81 -16.93,5.58 -16.93,5.58 0,0 8.71,-17.38 8.79,-29.88 5.05,-1.43 18.08,-4.47 23.01,-0.03" style="fill:#ffffff;fill-opacity:1;fill-rule:nonzero;stroke:none" id="path68"></path><path d="m 5265.75,1576.36 c 7.32,-3.39 18.07,24.54 -0.22,19.92 -8.86,-2.8 -22.68,-10.24 -22.68,-20.21 8.23,4.17 15.68,7.68 22.9,0.29" style="fill:#ffffff;fill-opacity:1;fill-rule:nonzero;stroke:none" id="path70"></path><path d="m 5267.42,1552.91 c 1.32,10.38 -4.5,9.01 -12.14,6.34 -8.65,-3.16 -15.47,-10.9 -17.47,-19.89 7.29,5.73 9.83,4.94 14.09,4.29 8.55,2.27 13.7,-5.18 15.52,9.26" style="fill:#ffffff;fill-opacity:1;fill-rule:nonzero;stroke:none" id="path72"></path><path d="m 5469.99,1326.92 c -24.43,8.03 -26.42,-13.21 -26.42,-13.21 0,0 -12.72,8.97 -21.21,-4.76 -1.9,5.22 -12.96,12.76 -1.2,12.44 1.61,3.54 15.45,-0.5 16.5,4.54 3.41,16.45 27.84,15.7 27.84,15.7 0,0 20.31,29.69 23.44,25.94 -2.44,-6.1 -13.29,-36.43 -18.95,-40.65 z m 349.04,201.8 c -5.38,13.77 -17.68,28.55 -33.71,28.94 -8.33,0.32 -16.65,2.75 -25.26,2.97 -8.79,0.21 -16.88,-2.3 -25.75,-2.21 -20.13,0.75 -34.16,-21.38 -48.36,-32.01 -4.32,-3.23 -14.31,-24.21 -3.08,-20.96 -0.12,5.41 8.08,13.07 13.41,12.8 -1.79,-5.53 -8.05,-11.71 -7.95,-17.82 0.21,-5.52 3.91,-10.36 0.72,-15.12 -4.24,-6.37 -0.03,-13.72 3.84,-11.28 -2.25,2.18 1.61,11.11 4.68,13.23 1.53,3.9 2.27,7.33 2.6,11.4 2.78,-0.56 8.83,-24.11 9.52,-28.19 1.28,-6.98 -10.32,-18.16 -14.45,-22.92 -6.98,-9.38 -7.28,-20.46 1.22,-28.99 3.86,-4.37 6.4,-7.86 18.03,-2.27 -6.15,-0.27 -12.99,12.01 -12.92,19.55 0.03,3.98 13.82,20.25 18.5,23.38 19.09,12.16 3.49,37 3.32,54.9 1.77,0.06 5.54,-9.19 7.87,-11.26 6.42,-5.65 6.48,-2.33 12.77,-1.81 -4.86,6.53 -5.48,6.03 -8,14.25 -1.6,5.17 0.7,12.44 1,17.91 2.61,15.79 14.28,12.26 25.56,18.65 10.81,-3.31 25.56,-0.36 33.89,-10.92 5.58,-7.09 11.47,-16.32 11.64,-25.48 0.45,-25.6 4.24,-55.57 -12.44,-77.86 -14.79,-16.86 -31.7,-27.08 -50.66,-38.66 -11.34,-6.93 -24.83,-10.85 -36.71,-16.7 -5.3,-2.61 -9.41,-5.74 -14.16,-9.05 -2.85,-0.98 -8.56,-0.89 -11.15,-2.54 -7.23,-2.7 -15.35,13.7 -21.94,18.85 -8.67,6.77 -19.86,6.18 -27.72,14.74 -6.47,7.04 -21.44,23.04 -22.23,32.39 -12.47,-17.7 -12.71,-19.67 -15.21,-24.18 -2,-3.63 -15.76,-16.7 -15.76,-16.7 0,0 -11.42,16.95 -19.91,23.53 -8.75,-2.76 -12.2,-14.32 -20.19,-30.09 -9.82,0.44 -22.66,32.48 -22.66,32.48 0,0 -7.78,-25.17 -7.75,-30.31 -12.65,3.25 -26.69,12.36 -32.3,24.43 -1.81,3.91 -6.74,14.85 -6.74,14.85 0,0 -16.67,-4.93 -21.58,-7.99 -5.39,-3.38 -11.69,-5.11 -18.11,-4.93 -11.28,0.32 -18.62,-6.84 -25.85,-15.15 -3.45,-10.06 -10.65,-24.19 -19.08,-31.02 -2.68,-3.96 -14.43,-16.04 -19.18,-17.84 -7.27,-2.73 -20.03,11.82 -27.09,14.31 -13.39,4.72 -16.69,-18.27 -14.01,-26.02 -11,4.94 -11.29,-0.64 -17.19,-6.77 -1.95,23.93 -27.14,-5.32 -29.69,-16.74 4.69,2.9 10.73,5.51 14.31,8.24 3.12,2.77 11.82,4.36 15.89,6 2.83,-9.14 6.4,-12.9 17.41,-9.76 -0.53,-3.72 -11.54,-2.9 -14.35,-6.79 -2.83,-3.94 -7.41,-5.73 -8.82,-10.95 -1.88,-8.49 -9.3,-10.58 -9.29,-20.9 0,-6.84 1.63,-9.05 9.62,-13.98 1.12,4.33 -2.77,8.22 1.92,11.31 3.82,2.51 5.59,6.73 9.32,9.48 10.92,3.45 4.68,3.8 3.64,15.32 5.55,-3.21 3.02,-8.91 7.3,-13.04 8.58,0.18 7.09,7.33 14.86,8.7 -0.55,-17.01 -0.89,-31.37 -0.24,-49.36 3.45,7.35 5.69,11.33 13.31,15.13 11.31,5.64 -0.19,9.66 -8.87,15.9 6.73,0.43 10.76,-3.11 17.09,-2.94 1.02,5.03 3.24,10.91 3.56,15.97 4.87,-5.59 12.22,-24.12 11.96,-17.27 0,0 6.47,6.88 7.58,10.46 1.2,-3.77 12.42,-18.65 14.67,-20.43 6.79,7.32 3.48,16.08 9.23,21.52 3.76,-5.82 20.19,-9.8 29.73,-16.72 5.73,8.58 -3.45,18.59 6.96,24.85 1.12,-5.34 7.94,-9.71 14.27,-14.69 1.42,2.7 4.38,10.7 3.89,13.46 -1.03,5.7 -3.89,10.95 -1.67,16.17 8.74,-4.19 26.85,-6.44 26.85,-6.44 0,0 -13.16,30.13 -2.2,28.61 1.59,-1.01 4.44,-7.92 19.4,-11.59 0.73,4.05 -5.55,11.31 -4.56,16.44 0.99,5.05 1.96,10.04 2.13,15.18 7.25,-1.52 10.34,-11.73 17.91,-13.84 6.32,-1.52 11.58,-4.75 18.1,-5.71 15.53,-2.28 30.06,-4.75 46.13,-4.41 9.43,0.2 18.74,1.09 27.62,-3.4 5.49,-2.78 9.61,-7.87 15.55,-12.33 5.52,-7.21 3.74,-8.1 8.01,-1.97 5.97,8.58 -4.84,9.9 -2.66,18.76 19.89,-13.31 8.9,-34.45 -5.8,-43.29 -6.44,-3.87 -15.45,-7.38 -19.34,-12.67 -5.36,-7.29 -9.09,-12.17 -5.37,-23.18 8.89,-13.2 19.46,-22.06 33.19,-31.14 7.28,-4.81 10.91,-7.91 24.43,-11.2 8.72,-0.75 12.08,-1.19 17.29,-1.36 -4.72,-14.25 -12.48,-42.53 -32.34,-30.67 -3.79,2.26 -6.28,3.47 -9.54,6.52 -5.5,0.81 -7.88,-2.39 -11.91,0.88 -6.02,4.87 -16.6,0.64 -16.93,-6.81 4.98,0.18 7.28,4.27 10.83,0.64 2.79,-0.05 5.3,0.76 7.55,2.42 0.08,-7.12 -17.58,-6.57 -4.7,-14.24 1.4,-1.34 4.33,-3.11 4.53,-4.98 -5.03,-0.06 -11.79,0.7 -12.21,-5.62 -9.77,7.87 -24.38,-6.62 -22.72,-19.24 4.71,0.11 7.83,3.07 12.55,4.56 7.69,2.44 8.48,-0.29 9.04,9.28 5.62,-1.65 11.22,-3.13 16.75,-5.03 -9.01,-4.06 -7.35,-10 -0.7,-14.75 7.77,-5.57 -1.18,-3.53 0.17,-5.55 0.29,-16.56 16.37,2.72 22.19,2.68 -1.57,-3.19 -1.49,-6.92 -5.06,-6.97 -0.31,-4.09 1.03,-7.54 4,-10.35 -12.51,-0.5 -10.98,-26.58 2.94,-31.26 1.05,7.95 -2.24,15.68 7.55,19.85 3.81,1.62 5.82,4.11 2.27,8.37 -5.63,-0.79 -6.59,0.92 -2.91,5.11 10.48,-9.96 12.67,-2.39 13.97,7.37 2.22,-3.63 7.58,-8.84 14.91,-18.38 5.6,3.09 4.16,13.21 9.35,18.24 1.33,-3.31 17.15,-6.47 20.95,-4.42 -2.73,10.68 3.44,12.24 1.54,16.76 4.99,1.34 6.7,2.57 17.56,4.82 -2.02,4.35 -6.5,5.48 -8.34,9.65 8.79,0.34 15.95,-1.12 25.58,2.41 -7.15,9.2 -10.43,6.84 -16.99,13.07 -7.6,7.22 -9.35,11.89 0.99,13.86 5.26,1 17.7,-2.04 17.7,-2.04 0,0 -0.11,18.67 -1.1,24.4 -2.67,8.04 13,15.77 18.93,19.88 4.44,3.29 10.47,11.84 10.47,11.84 0,0 -22.7,-3.6 -28.1,-1.42 6.91,13.19 7.16,38.47 7.16,38.47 0,0 -19.95,-7.07 -23.21,-9.4 -0.14,9.56 -11.21,38.92 -11.21,38.92 0,0 -10.02,-4.78 -16.35,-9.19 -9.62,-6.7 -6.06,-3.9 -9.73,4.83 -0.52,5.45 -2.5,10.59 -4.08,15.78 -2.88,9.47 -2.02,24.05 -8.43,30.99 9.06,9.3 12.43,23.74 26.63,27.02 12.12,2.79 24.1,12.7 34.66,18.96 11.33,6.71 23.09,13.99 34.11,20.54 43.67,25.95 36.94,107.51 31.94,120.29" style="fill:#ffffff;fill-opacity:1;fill-rule:nonzero;stroke:none" id="path74"></path><path d="m 5326.8,1381.02 c -5.47,2.97 -13.25,0.05 -19.08,-0.01 -3.71,-1.58 -6.52,-4.13 -8.44,-7.67 6.8,-0.21 16.6,-2.54 20.23,-3.08 1.32,-8.26 7.79,-5.12 12.57,-2.44 8.07,4.09 -1.76,11.29 -5.28,13.2" style="fill:#ffffff;fill-opacity:1;fill-rule:nonzero;stroke:none" id="path76"></path><path d="m 5572.35,1198.21 c 6.68,-4.6 33.62,-4.07 33.62,-4.07 0,0 -1.52,7.91 -5.55,8.37 -6.68,0.78 -5.19,9.22 -8.76,13.23 4.18,1.5 3.94,11.14 11.56,14.72 11.3,5.31 5.92,6.55 1.72,14.23 -3.56,6.05 -8.92,13.35 -10.84,20.1 -0.85,9.65 7.08,14.94 12.56,21.41 7.38,7.79 29.48,18 16.3,30.36 -6.38,5.99 -24.75,10.62 -33.25,6.8 -17.4,-8.59 -39.43,-1.62 -57.95,-8.52 -17.35,-5.69 -32.33,-33.07 -16.24,-48.1 10.12,-9.93 26.43,-38.83 10.67,-49.66 -12.69,-7.25 -29.91,-15.87 -42.73,-19.81 1.18,4.12 26.17,9.73 7.12,18.49 -3.64,1.67 -15.65,0.62 -17.17,1.84 -8.64,4.18 -19.84,2.74 -22.12,-11.35 9.73,12.47 13.21,1.75 23.44,7.48 -0.25,-8.56 8.17,-13.27 7.9,-17.98 -8.36,0.1 -22.89,-18.29 -23.06,-26.95 -5.99,17.47 -21.61,-13.96 -21.91,-20.84 7.4,7.68 6.88,4.22 14.15,8.23 1.95,0.8 3.94,0.93 5.98,0.4 4.47,2.84 5.23,6.47 2.29,10.89 6.65,-2.13 5.57,-11.18 15.4,-3.69 -2.69,-7.95 -4.61,-19.55 -12.04,-20.64 -2.45,-6.72 -10.4,-10.7 -10.19,-25.33 6.4,0.86 22.49,10.27 25.82,15.37 -4.19,-0.47 -10.89,6.56 -9.83,9.98 8.97,0.14 8.06,-13.17 17.08,-6.58 3.62,3.12 6.18,7.14 9.72,10.31 -0.06,-11.55 -0.33,-12.75 12.01,-14.59 10.35,-1.55 9.74,3.94 9.86,12.3 4.38,0.56 14.6,-3.94 14.6,-3.94 0,0 3.89,9.52 4.06,13.27 6.5,-0.48 10.22,-2.54 18.2,-9.09 0.49,10.04 3.33,17.74 2.42,25.71 6.13,-0.98 -0.85,-1.38 28.48,3.03 -5.32,4.09 -13.72,17.62 -13.32,24.62" style="fill:#ffffff;fill-opacity:1;fill-rule:nonzero;stroke:none" id="path78"></path><path d="m 5616.95,1136.26 c -3.49,-6.21 -14.07,-12.84 -9.81,-27.03 6.48,2.9 7.49,14.64 16.58,8.19 3.63,5.07 3.23,25.59 -6.77,18.84" style="fill:#ffffff;fill-opacity:1;fill-rule:nonzero;stroke:none" id="path80"></path><path d="m 5498.99,1130.8 c -4.91,-6.75 3.4,-31.13 10.84,-29.59 -3.32,8.21 -2.6,15.29 2.94,22.13 -0.61,5.11 -8.77,9.77 -13.78,7.46" style="fill:#ffffff;fill-opacity:1;fill-rule:nonzero;stroke:none" id="path82"></path></g></g></svg>